<svg width="431" height="430" viewBox="0 0 431 430" fill="none" xmlns="http://www.w3.org/2000/svg">
<mask id="path-1-outside-1_3_387" maskUnits="userSpaceOnUse" x="-0.212769" y="0.291656" width="432" height="430" fill="black">
<rect fill="white" x="-0.212769" y="0.291656" width="432" height="430"/>
<path fill-rule="evenodd" clip-rule="evenodd" d="M66.7218 150.516C66.7218 149.663 66.6497 149.568 66.3552 149.18C66.2041 148.981 65.9945 148.705 65.7061 148.21C65.3484 147.596 64.9616 147.011 64.4682 146.263L64.4682 146.263C63.7882 145.233 62.9057 143.896 61.6175 141.757C59.3946 138.064 55.0325 130.791 52.3685 126.055C51.8959 125.215 51.4389 124.411 50.9964 123.632L50.9963 123.632C48.9444 120.021 47.2014 116.954 45.6333 113.342C43.7269 108.951 42.2824 105.29 40.9305 99.7064C39.5786 94.1225 38.2089 86.2841 37.522 79.8392C36.8352 73.3944 36.7312 66.9736 36.8094 61.0371C36.8877 55.1006 37.2655 48.3161 37.9915 44.2201C38.7176 40.1242 39.8921 37.2646 41.1657 36.4613C42.4394 35.658 44.4428 37.8866 45.6333 39.4003C45.8056 39.6194 45.9444 39.7843 46.0614 39.9234C46.1924 40.079 46.2961 40.2023 46.3893 40.3331C46.7438 40.8309 46.9453 41.4378 47.9136 44.3547C48.033 44.7143 48.164 45.109 48.3084 45.543C49.0316 47.7161 49.9738 50.9126 51.0516 54.5693L51.0516 54.5695L51.0517 54.5696C52.8032 60.5123 54.9132 67.6708 57.024 73.6286C60.4338 83.2526 64.9134 95.2367 68.7671 103.287C72.3156 110.7 76.2941 116.405 79.3725 120.82C79.6373 121.2 79.8954 121.57 80.146 121.931C83.3104 126.487 85.6521 129.473 87.7533 130.627C89.1777 131.409 90.0667 130.723 91.103 129.923C91.5954 129.543 92.1211 129.138 92.7533 128.852C93.4703 128.528 94.1047 128.107 94.7903 127.652C95.9816 126.861 97.3274 125.967 99.5289 125.302C102.998 124.253 107.408 123.178 113.565 122.56C119.723 121.941 130.209 121.295 136.474 121.591C142.739 121.887 145.373 122.211 151.154 124.335C154.244 125.471 158.564 127.828 162.549 130.002L162.549 130.002L162.549 130.002C166.018 131.894 169.233 133.648 171.16 134.336C174.632 135.576 175.116 134.717 175.658 133.758C175.762 133.573 175.868 133.384 175.998 133.206C176.425 132.623 176.34 132.101 176.197 131.221C176.07 130.437 175.897 129.369 175.998 127.722C176.034 127.148 176.07 126.504 176.109 125.803L176.109 125.799C176.309 122.226 176.593 117.155 177.29 112.235C177.357 111.761 177.425 111.275 177.495 110.777L177.495 110.777C178.293 105.087 179.293 97.9538 180.999 92.3904C182.855 86.3405 184.927 81.0712 188.423 75.9357C191.918 70.8002 197.16 65.0727 201.973 61.5774C206.262 58.4625 211.106 56.9285 215.649 55.4897C216.204 55.3141 216.754 55.1398 217.299 54.9642C221.996 53.449 225.343 52.9293 230.878 52.0697L230.882 52.0691C231.239 52.0137 231.605 51.9569 231.981 51.8983C236.564 51.184 242.801 50.4845 248.618 49.832L248.619 49.832C250.685 49.6003 252.697 49.3745 254.564 49.1562C261.689 48.3228 269.057 47.4629 274.731 46.8983C276.537 46.7185 278.09 46.4951 279.53 46.2879C282.613 45.8444 285.178 45.4753 288.606 45.7684C293.634 46.1983 299.775 47.3366 304.9 49.478C310.025 51.6194 315.353 55.2779 319.357 58.6168C323.36 61.9557 326.339 65.8192 328.922 69.5115C331.504 73.2037 332.916 75.6253 334.853 80.7703C336.79 85.9153 339.212 94.3286 340.544 100.382C341.753 105.879 342.096 109.413 342.663 115.244C342.72 115.834 342.78 116.447 342.843 117.088C343.271 121.447 343.644 127.172 344.007 132.736L344.007 132.737L344.007 132.742C344.225 136.086 344.439 139.372 344.659 142.267C344.889 145.298 345.145 148.134 345.392 150.883C345.775 155.131 346.138 159.167 346.36 163.377C346.451 165.116 346.585 166.922 346.719 168.74C347.121 174.166 347.531 179.695 346.846 183.864C346.092 188.453 343.985 191.801 342.062 194.854C341.653 195.503 341.253 196.139 340.875 196.771C340.562 197.296 340.274 197.794 339.997 198.271C338.375 201.07 337.178 203.138 333.938 205.481C333.618 205.713 333.298 205.947 332.976 206.183C329.495 208.734 325.784 211.454 318.129 213.226C311.841 214.682 299.347 215.742 290.702 216.476C287.851 216.717 285.419 216.924 283.765 217.097C279.709 217.522 278.836 217.152 278.569 217.039C278.517 217.017 278.488 217.004 278.463 217.01C278.431 217.017 278.406 217.051 278.348 217.129C278.301 217.194 278.231 217.288 278.118 217.421C277.645 217.978 277.749 218.498 277.936 219.442C278.111 220.321 278.359 221.567 278.281 223.551C278.248 224.38 278.224 225.29 278.196 226.284V226.284C278.089 230.223 277.946 235.469 277.151 242.104C276.156 250.412 273.951 264.878 272.31 273.401C271.548 277.366 270.616 280.347 269.743 283.14C268.74 286.353 267.814 289.317 267.31 293.243C266.369 300.583 265.966 309.725 266.665 317.443C267.364 325.16 269.301 333.281 271.505 339.546C273.71 345.811 277.527 351.538 279.893 355.033C281.097 356.812 282.266 357.511 283.284 358.12C284.266 358.707 285.107 359.21 285.701 360.517C286.911 363.179 287.941 367.732 287.155 371.004C286.368 374.275 283.544 378.481 280.982 380.146C278.981 381.446 277.461 381.344 274.577 381.151C273.766 381.096 272.848 381.035 271.782 380.995L271.224 380.974H271.223C266.15 380.787 256.179 380.418 251.806 379.058C247.267 377.645 246.339 376.737 244.544 372.52C243.316 369.637 242.682 365.066 242.024 360.315C241.719 358.117 241.409 355.881 241.033 353.756C240.403 350.201 239.815 346.643 239.194 342.881L239.194 342.879L239.193 342.878C238.64 339.529 238.061 336.02 237.401 332.208C236.929 329.482 236.305 326.378 235.661 323.174L235.661 323.174C234.394 316.865 233.047 310.167 232.626 305.183C232.151 299.559 232.688 295.064 233.168 291.04C233.33 289.686 233.485 288.386 233.593 287.114C233.85 284.091 234.261 281.415 234.619 279.085C234.86 277.518 235.076 276.108 235.206 274.854C235.308 273.864 235.473 272.961 235.62 272.154C235.936 270.42 236.17 269.135 235.528 268.4C234.783 267.548 232.706 267.894 230.899 268.195L230.899 268.195C230.424 268.274 229.969 268.35 229.56 268.4C228.387 268.545 227.409 268.834 226.293 269.163C225.542 269.385 224.728 269.625 223.752 269.851C223.218 269.975 222.615 270.119 221.974 270.272C219.705 270.814 216.95 271.471 215.004 271.778C213.585 272.002 212.407 272.034 211.291 272.064H211.291H211.29C210.444 272.087 209.632 272.109 208.779 272.213C207.567 272.361 206.358 272.603 205.213 272.833L205.212 272.833L205.212 272.833C204.488 272.978 203.79 273.118 203.132 273.226C202.519 273.327 201.879 273.328 201.267 273.329C200.184 273.331 199.189 273.333 198.585 273.885C198.039 274.382 198.007 274.717 197.928 275.542C197.869 276.146 197.786 277.014 197.456 278.401C197.245 279.288 196.972 280.36 196.662 281.572L196.662 281.573L196.662 281.574C195.826 284.844 194.731 289.134 193.907 293.567C193.742 294.455 193.565 295.383 193.382 296.341L193.382 296.342C192.316 301.937 191.048 308.595 190.681 314.862C190.25 322.202 190.786 331.425 191.324 337.609C191.73 342.276 192.504 345.688 193.23 348.883C193.465 349.922 193.696 350.938 193.907 351.967C194.088 352.852 194.255 353.708 194.417 354.536C195.022 357.637 195.553 360.357 196.487 362.775C197.485 365.361 199.264 367.883 200.43 369.535C200.646 369.841 200.84 370.117 201.005 370.358C201.715 371.396 202.047 371.565 202.352 371.72C202.501 371.795 202.642 371.867 202.818 372.034C202.999 372.206 203.155 372.308 203.304 372.405C203.597 372.597 203.861 372.77 204.232 373.424C204.356 373.644 204.515 373.873 204.689 374.123C205.29 374.99 206.063 376.104 206.168 377.942C206.174 378.058 206.182 378.18 206.189 378.308L206.189 378.315C206.335 380.782 206.597 385.22 205.039 387.621C203.399 390.148 201.49 392.247 196.327 393.107C191.165 393.967 179.63 393.939 174.064 392.783C168.498 391.627 165.19 389.208 162.931 386.17C161.205 383.848 161.065 381.84 160.819 378.31C160.743 377.221 160.657 375.987 160.511 374.554C160.128 370.793 159.859 364.14 159.626 358.396L159.626 358.396C159.482 354.858 159.353 351.666 159.22 349.708C159.098 347.919 159.081 346.769 159.069 345.99C159.048 344.534 159.045 344.371 158.415 343.741C157.79 343.116 156.79 343.323 155.577 343.575C154.911 343.713 154.182 343.865 153.414 343.9C152.725 343.932 151.969 344.074 151.162 344.227L151.161 344.227C149.426 344.554 147.454 344.925 145.399 344.338C144.706 344.14 143.933 344.047 143.124 343.949H143.124C140.417 343.621 137.297 343.244 135.345 338.738C133.545 334.583 132.403 325.746 131.393 317.919C130.979 314.72 130.588 311.689 130.182 309.216C129.844 307.152 129.524 305.287 129.224 303.532C128.283 298.04 127.527 293.629 126.956 287.597C126.203 279.638 125.45 268.669 125.665 261.463C125.808 256.654 126.694 252.372 127.411 248.905L127.411 248.905C127.769 247.177 128.084 245.651 128.245 244.363C128.419 242.971 128.649 242.108 128.822 241.457C129.13 240.298 129.258 239.816 128.569 238.231C127.494 235.757 124.958 232.01 121.794 229.518C118.63 227.027 112.445 223.354 109.586 223.282C107.288 223.225 106.808 224.302 105.647 226.904C105.363 227.54 105.039 228.267 104.638 229.09C103.72 230.975 102.744 233.88 101.681 237.045L101.681 237.046C100.378 240.924 98.9447 245.192 97.3262 248.449C95.642 251.839 93.4163 255.016 91.2966 258.042C89.7167 260.298 88.1956 262.47 87.0014 264.582C84.871 268.351 83.0733 272.432 81.7037 275.541C81.2755 276.513 80.8892 277.39 80.5476 278.133C79.9789 279.369 79.6582 279.698 79.4245 279.938C79.0691 280.303 78.9153 280.461 78.396 283.295C77.5356 287.992 75.6718 300.039 75.3852 306.313C75.0986 312.587 75.3503 316.207 76.6766 320.939C77.622 324.312 79.8484 328.314 81.5898 331.444L81.59 331.444C82.2915 332.705 82.9143 333.824 83.3429 334.704C84.0045 336.063 84.3958 336.765 84.6857 337.286C85.0498 337.94 85.254 338.306 85.6333 339.324C86.3144 341.153 87.1301 343.469 87.4295 345.675C87.4835 346.072 87.5529 346.491 87.6241 346.92L87.6242 346.92C87.9484 348.875 88.311 351.06 87.4295 352.559L87.3644 352.669C86.3277 354.435 85.6488 355.592 80.9777 356.645C76.2097 357.721 64.7369 359.55 58.8212 359.012C58.0258 358.94 57.2499 358.887 56.4962 358.835C51.6447 358.5 47.7178 358.23 45.4836 353.42C43.7575 349.704 43.6993 343.278 43.6358 336.266C43.6043 332.792 43.5715 329.174 43.334 325.671C42.6172 315.095 41.5411 298.64 41.1825 289.964C41.0581 286.956 40.8001 285.128 40.5924 283.657C40.2011 280.885 39.9881 279.377 41.1825 273.616C41.9569 269.88 43.5484 265.36 45.3355 260.283L45.3355 260.283C47.7674 253.375 50.5617 245.438 52.1529 237.048C53.6408 229.203 54.4933 218.993 55.3167 209.131C56.021 200.696 56.7041 192.515 57.7455 186.284C59.3265 176.824 61.8615 168.669 63.7533 162.582L63.7534 162.582C64.5644 159.973 65.2572 157.744 65.7061 155.955C66.8452 151.417 66.8385 151.385 66.7705 151.058C66.7492 150.956 66.7218 150.824 66.7218 150.516ZM350.667 309.556V289.644V281.449V260.444C350.667 259.396 351.473 258.536 352.5 258.451C352.555 258.447 352.611 258.444 352.667 258.444H365.441C372.929 258.444 379 252.374 379 244.886V243.852C379 240.315 377.365 236.976 374.57 234.807C370.555 231.691 365.616 230 360.533 230H357.75H354.967C349.884 230 344.945 231.691 340.93 234.807C338.135 236.976 336.5 240.315 336.5 243.852V252.521V260.444V267.412V267.73V276.283V281.449C336.5 282.539 335.659 283.345 334.667 283.517C334.235 283.592 333.775 283.547 333.343 283.354C332.205 282.846 331.044 282.424 329.859 282.089C328.91 281.82 327.926 281.607 326.906 281.449C325.453 281.224 323.929 281.111 322.333 281.111C321.716 281.111 321.106 281.129 320.503 281.164L320.5 281.164C313.49 281.571 307.431 284.338 302.323 289.467C296.774 295.037 294 301.733 294 309.556C294 317.378 296.774 324.074 302.323 329.644C307.871 335.215 314.542 338 322.333 338C330.125 338 336.795 335.215 342.344 329.644C347.892 324.074 350.667 315.636 350.667 309.556ZM290.987 278.175C299.074 270.056 309.158 265.58 320.5 265.146V243.852C320.5 235.371 324.421 227.366 331.121 222.167C337.943 216.873 346.332 214 354.967 214H357.75H360.533C369.168 214 377.557 216.873 384.379 222.167C391.079 227.366 395 235.371 395 243.852V244.886C395 260.8 382.423 273.777 366.667 274.419V309.556C366.667 319.378 362.544 332.036 353.68 340.936C345.159 349.49 334.422 354 322.333 354C310.244 354 299.507 349.49 290.987 340.936C282.469 332.384 278 321.635 278 309.556C278 297.476 282.469 286.727 290.987 278.175Z"/>
</mask>
<path fill-rule="evenodd" clip-rule="evenodd" d="M66.7218 150.516C66.7218 149.663 66.6497 149.568 66.3552 149.18C66.2041 148.981 65.9945 148.705 65.7061 148.21C65.3484 147.596 64.9616 147.011 64.4682 146.263L64.4682 146.263C63.7882 145.233 62.9057 143.896 61.6175 141.757C59.3946 138.064 55.0325 130.791 52.3685 126.055C51.8959 125.215 51.4389 124.411 50.9964 123.632L50.9963 123.632C48.9444 120.021 47.2014 116.954 45.6333 113.342C43.7269 108.951 42.2824 105.29 40.9305 99.7064C39.5786 94.1225 38.2089 86.2841 37.522 79.8392C36.8352 73.3944 36.7312 66.9736 36.8094 61.0371C36.8877 55.1006 37.2655 48.3161 37.9915 44.2201C38.7176 40.1242 39.8921 37.2646 41.1657 36.4613C42.4394 35.658 44.4428 37.8866 45.6333 39.4003C45.8056 39.6194 45.9444 39.7843 46.0614 39.9234C46.1924 40.079 46.2961 40.2023 46.3893 40.3331C46.7438 40.8309 46.9453 41.4378 47.9136 44.3547C48.033 44.7143 48.164 45.109 48.3084 45.543C49.0316 47.7161 49.9738 50.9126 51.0516 54.5693L51.0516 54.5695L51.0517 54.5696C52.8032 60.5123 54.9132 67.6708 57.024 73.6286C60.4338 83.2526 64.9134 95.2367 68.7671 103.287C72.3156 110.7 76.2941 116.405 79.3725 120.82C79.6373 121.2 79.8954 121.57 80.146 121.931C83.3104 126.487 85.6521 129.473 87.7533 130.627C89.1777 131.409 90.0667 130.723 91.103 129.923C91.5954 129.543 92.1211 129.138 92.7533 128.852C93.4703 128.528 94.1047 128.107 94.7903 127.652C95.9816 126.861 97.3274 125.967 99.5289 125.302C102.998 124.253 107.408 123.178 113.565 122.56C119.723 121.941 130.209 121.295 136.474 121.591C142.739 121.887 145.373 122.211 151.154 124.335C154.244 125.471 158.564 127.828 162.549 130.002L162.549 130.002L162.549 130.002C166.018 131.894 169.233 133.648 171.16 134.336C174.632 135.576 175.116 134.717 175.658 133.758C175.762 133.573 175.868 133.384 175.998 133.206C176.425 132.623 176.34 132.101 176.197 131.221C176.07 130.437 175.897 129.369 175.998 127.722C176.034 127.148 176.07 126.504 176.109 125.803L176.109 125.799C176.309 122.226 176.593 117.155 177.29 112.235C177.357 111.761 177.425 111.275 177.495 110.777L177.495 110.777C178.293 105.087 179.293 97.9538 180.999 92.3904C182.855 86.3405 184.927 81.0712 188.423 75.9357C191.918 70.8002 197.16 65.0727 201.973 61.5774C206.262 58.4625 211.106 56.9285 215.649 55.4897C216.204 55.3141 216.754 55.1398 217.299 54.9642C221.996 53.449 225.343 52.9293 230.878 52.0697L230.882 52.0691C231.239 52.0137 231.605 51.9569 231.981 51.8983C236.564 51.184 242.801 50.4845 248.618 49.832L248.619 49.832C250.685 49.6003 252.697 49.3745 254.564 49.1562C261.689 48.3228 269.057 47.4629 274.731 46.8983C276.537 46.7185 278.09 46.4951 279.53 46.2879C282.613 45.8444 285.178 45.4753 288.606 45.7684C293.634 46.1983 299.775 47.3366 304.9 49.478C310.025 51.6194 315.353 55.2779 319.357 58.6168C323.36 61.9557 326.339 65.8192 328.922 69.5115C331.504 73.2037 332.916 75.6253 334.853 80.7703C336.79 85.9153 339.212 94.3286 340.544 100.382C341.753 105.879 342.096 109.413 342.663 115.244C342.72 115.834 342.78 116.447 342.843 117.088C343.271 121.447 343.644 127.172 344.007 132.736L344.007 132.737L344.007 132.742C344.225 136.086 344.439 139.372 344.659 142.267C344.889 145.298 345.145 148.134 345.392 150.883C345.775 155.131 346.138 159.167 346.36 163.377C346.451 165.116 346.585 166.922 346.719 168.74C347.121 174.166 347.531 179.695 346.846 183.864C346.092 188.453 343.985 191.801 342.062 194.854C341.653 195.503 341.253 196.139 340.875 196.771C340.562 197.296 340.274 197.794 339.997 198.271C338.375 201.07 337.178 203.138 333.938 205.481C333.618 205.713 333.298 205.947 332.976 206.183C329.495 208.734 325.784 211.454 318.129 213.226C311.841 214.682 299.347 215.742 290.702 216.476C287.851 216.717 285.419 216.924 283.765 217.097C279.709 217.522 278.836 217.152 278.569 217.039C278.517 217.017 278.488 217.004 278.463 217.01C278.431 217.017 278.406 217.051 278.348 217.129C278.301 217.194 278.231 217.288 278.118 217.421C277.645 217.978 277.749 218.498 277.936 219.442C278.111 220.321 278.359 221.567 278.281 223.551C278.248 224.38 278.224 225.29 278.196 226.284V226.284C278.089 230.223 277.946 235.469 277.151 242.104C276.156 250.412 273.951 264.878 272.31 273.401C271.548 277.366 270.616 280.347 269.743 283.14C268.74 286.353 267.814 289.317 267.31 293.243C266.369 300.583 265.966 309.725 266.665 317.443C267.364 325.16 269.301 333.281 271.505 339.546C273.71 345.811 277.527 351.538 279.893 355.033C281.097 356.812 282.266 357.511 283.284 358.12C284.266 358.707 285.107 359.21 285.701 360.517C286.911 363.179 287.941 367.732 287.155 371.004C286.368 374.275 283.544 378.481 280.982 380.146C278.981 381.446 277.461 381.344 274.577 381.151C273.766 381.096 272.848 381.035 271.782 380.995L271.224 380.974H271.223C266.15 380.787 256.179 380.418 251.806 379.058C247.267 377.645 246.339 376.737 244.544 372.52C243.316 369.637 242.682 365.066 242.024 360.315C241.719 358.117 241.409 355.881 241.033 353.756C240.403 350.201 239.815 346.643 239.194 342.881L239.194 342.879L239.193 342.878C238.64 339.529 238.061 336.02 237.401 332.208C236.929 329.482 236.305 326.378 235.661 323.174L235.661 323.174C234.394 316.865 233.047 310.167 232.626 305.183C232.151 299.559 232.688 295.064 233.168 291.04C233.33 289.686 233.485 288.386 233.593 287.114C233.85 284.091 234.261 281.415 234.619 279.085C234.86 277.518 235.076 276.108 235.206 274.854C235.308 273.864 235.473 272.961 235.62 272.154C235.936 270.42 236.17 269.135 235.528 268.4C234.783 267.548 232.706 267.894 230.899 268.195L230.899 268.195C230.424 268.274 229.969 268.35 229.56 268.4C228.387 268.545 227.409 268.834 226.293 269.163C225.542 269.385 224.728 269.625 223.752 269.851C223.218 269.975 222.615 270.119 221.974 270.272C219.705 270.814 216.95 271.471 215.004 271.778C213.585 272.002 212.407 272.034 211.291 272.064H211.291H211.29C210.444 272.087 209.632 272.109 208.779 272.213C207.567 272.361 206.358 272.603 205.213 272.833L205.212 272.833L205.212 272.833C204.488 272.978 203.79 273.118 203.132 273.226C202.519 273.327 201.879 273.328 201.267 273.329C200.184 273.331 199.189 273.333 198.585 273.885C198.039 274.382 198.007 274.717 197.928 275.542C197.869 276.146 197.786 277.014 197.456 278.401C197.245 279.288 196.972 280.36 196.662 281.572L196.662 281.573L196.662 281.574C195.826 284.844 194.731 289.134 193.907 293.567C193.742 294.455 193.565 295.383 193.382 296.341L193.382 296.342C192.316 301.937 191.048 308.595 190.681 314.862C190.25 322.202 190.786 331.425 191.324 337.609C191.73 342.276 192.504 345.688 193.23 348.883C193.465 349.922 193.696 350.938 193.907 351.967C194.088 352.852 194.255 353.708 194.417 354.536C195.022 357.637 195.553 360.357 196.487 362.775C197.485 365.361 199.264 367.883 200.43 369.535C200.646 369.841 200.84 370.117 201.005 370.358C201.715 371.396 202.047 371.565 202.352 371.72C202.501 371.795 202.642 371.867 202.818 372.034C202.999 372.206 203.155 372.308 203.304 372.405C203.597 372.597 203.861 372.77 204.232 373.424C204.356 373.644 204.515 373.873 204.689 374.123C205.29 374.99 206.063 376.104 206.168 377.942C206.174 378.058 206.182 378.18 206.189 378.308L206.189 378.315C206.335 380.782 206.597 385.22 205.039 387.621C203.399 390.148 201.49 392.247 196.327 393.107C191.165 393.967 179.63 393.939 174.064 392.783C168.498 391.627 165.19 389.208 162.931 386.17C161.205 383.848 161.065 381.84 160.819 378.31C160.743 377.221 160.657 375.987 160.511 374.554C160.128 370.793 159.859 364.14 159.626 358.396L159.626 358.396C159.482 354.858 159.353 351.666 159.22 349.708C159.098 347.919 159.081 346.769 159.069 345.99C159.048 344.534 159.045 344.371 158.415 343.741C157.79 343.116 156.79 343.323 155.577 343.575C154.911 343.713 154.182 343.865 153.414 343.9C152.725 343.932 151.969 344.074 151.162 344.227L151.161 344.227C149.426 344.554 147.454 344.925 145.399 344.338C144.706 344.14 143.933 344.047 143.124 343.949H143.124C140.417 343.621 137.297 343.244 135.345 338.738C133.545 334.583 132.403 325.746 131.393 317.919C130.979 314.72 130.588 311.689 130.182 309.216C129.844 307.152 129.524 305.287 129.224 303.532C128.283 298.04 127.527 293.629 126.956 287.597C126.203 279.638 125.45 268.669 125.665 261.463C125.808 256.654 126.694 252.372 127.411 248.905L127.411 248.905C127.769 247.177 128.084 245.651 128.245 244.363C128.419 242.971 128.649 242.108 128.822 241.457C129.13 240.298 129.258 239.816 128.569 238.231C127.494 235.757 124.958 232.01 121.794 229.518C118.63 227.027 112.445 223.354 109.586 223.282C107.288 223.225 106.808 224.302 105.647 226.904C105.363 227.54 105.039 228.267 104.638 229.09C103.72 230.975 102.744 233.88 101.681 237.045L101.681 237.046C100.378 240.924 98.9447 245.192 97.3262 248.449C95.642 251.839 93.4163 255.016 91.2966 258.042C89.7167 260.298 88.1956 262.47 87.0014 264.582C84.871 268.351 83.0733 272.432 81.7037 275.541C81.2755 276.513 80.8892 277.39 80.5476 278.133C79.9789 279.369 79.6582 279.698 79.4245 279.938C79.0691 280.303 78.9153 280.461 78.396 283.295C77.5356 287.992 75.6718 300.039 75.3852 306.313C75.0986 312.587 75.3503 316.207 76.6766 320.939C77.622 324.312 79.8484 328.314 81.5898 331.444L81.59 331.444C82.2915 332.705 82.9143 333.824 83.3429 334.704C84.0045 336.063 84.3958 336.765 84.6857 337.286C85.0498 337.94 85.254 338.306 85.6333 339.324C86.3144 341.153 87.1301 343.469 87.4295 345.675C87.4835 346.072 87.5529 346.491 87.6241 346.92L87.6242 346.92C87.9484 348.875 88.311 351.06 87.4295 352.559L87.3644 352.669C86.3277 354.435 85.6488 355.592 80.9777 356.645C76.2097 357.721 64.7369 359.55 58.8212 359.012C58.0258 358.94 57.2499 358.887 56.4962 358.835C51.6447 358.5 47.7178 358.23 45.4836 353.42C43.7575 349.704 43.6993 343.278 43.6358 336.266C43.6043 332.792 43.5715 329.174 43.334 325.671C42.6172 315.095 41.5411 298.64 41.1825 289.964C41.0581 286.956 40.8001 285.128 40.5924 283.657C40.2011 280.885 39.9881 279.377 41.1825 273.616C41.9569 269.88 43.5484 265.36 45.3355 260.283L45.3355 260.283C47.7674 253.375 50.5617 245.438 52.1529 237.048C53.6408 229.203 54.4933 218.993 55.3167 209.131C56.021 200.696 56.7041 192.515 57.7455 186.284C59.3265 176.824 61.8615 168.669 63.7533 162.582L63.7534 162.582C64.5644 159.973 65.2572 157.744 65.7061 155.955C66.8452 151.417 66.8385 151.385 66.7705 151.058C66.7492 150.956 66.7218 150.824 66.7218 150.516ZM350.667 309.556V289.644V281.449V260.444C350.667 259.396 351.473 258.536 352.5 258.451C352.555 258.447 352.611 258.444 352.667 258.444H365.441C372.929 258.444 379 252.374 379 244.886V243.852C379 240.315 377.365 236.976 374.57 234.807C370.555 231.691 365.616 230 360.533 230H357.75H354.967C349.884 230 344.945 231.691 340.93 234.807C338.135 236.976 336.5 240.315 336.5 243.852V252.521V260.444V267.412V267.73V276.283V281.449C336.5 282.539 335.659 283.345 334.667 283.517C334.235 283.592 333.775 283.547 333.343 283.354C332.205 282.846 331.044 282.424 329.859 282.089C328.91 281.82 327.926 281.607 326.906 281.449C325.453 281.224 323.929 281.111 322.333 281.111C321.716 281.111 321.106 281.129 320.503 281.164L320.5 281.164C313.49 281.571 307.431 284.338 302.323 289.467C296.774 295.037 294 301.733 294 309.556C294 317.378 296.774 324.074 302.323 329.644C307.871 335.215 314.542 338 322.333 338C330.125 338 336.795 335.215 342.344 329.644C347.892 324.074 350.667 315.636 350.667 309.556ZM290.987 278.175C299.074 270.056 309.158 265.58 320.5 265.146V243.852C320.5 235.371 324.421 227.366 331.121 222.167C337.943 216.873 346.332 214 354.967 214H357.75H360.533C369.168 214 377.557 216.873 384.379 222.167C391.079 227.366 395 235.371 395 243.852V244.886C395 260.8 382.423 273.777 366.667 274.419V309.556C366.667 319.378 362.544 332.036 353.68 340.936C345.159 349.49 334.422 354 322.333 354C310.244 354 299.507 349.49 290.987 340.936C282.469 332.384 278 321.635 278 309.556C278 297.476 282.469 286.727 290.987 278.175Z" fill="#A12ED6"/>
<path d="M66.3552 149.18L37.6835 170.95L37.6838 170.951L66.3552 149.18ZM65.7061 148.21L96.8108 130.086L96.8107 130.086L65.7061 148.21ZM64.4682 146.263L94.5116 126.429L94.467 126.361L94.422 126.294L64.4682 146.263ZM64.4682 146.263L34.4248 166.097L34.4694 166.165L34.5144 166.232L64.4682 146.263ZM61.6175 141.757L30.775 160.324L30.775 160.324L61.6175 141.757ZM52.3685 126.055L83.7447 108.404L83.7446 108.404L52.3685 126.055ZM50.9964 123.632L19.4526 140.981L19.5738 141.201L19.698 141.42L50.9964 123.632ZM50.9963 123.632L82.5401 106.283L82.419 106.063L82.2947 105.844L50.9963 123.632ZM45.6333 113.342L12.6106 127.678L12.6106 127.678L45.6333 113.342ZM40.9305 99.7064L5.94134 108.177L40.9305 99.7064ZM37.522 79.8392L1.72474 83.6542L1.72475 83.6542L37.522 79.8392ZM36.8094 61.0371L0.812561 60.5626L36.8094 61.0371ZM37.9915 44.2201L2.54411 37.9367L2.54411 37.9368L37.9915 44.2201ZM41.1657 36.4613L21.9604 6.01204L21.9604 6.01204L41.1657 36.4613ZM45.6333 39.4003L73.93 17.145L73.93 17.145L45.6333 39.4003ZM46.0614 39.9234L73.6068 16.7447L73.6068 16.7447L46.0614 39.9234ZM46.3893 40.3331L75.712 19.4482L75.712 19.4482L46.3893 40.3331ZM47.9136 44.3547L13.7471 55.697L47.9136 44.3547ZM48.3084 45.543L14.1503 56.9104L14.1503 56.9104L48.3084 45.543ZM51.0516 54.5693L85.6466 44.6102L85.6151 44.5007L85.5829 44.3915L51.0516 54.5693ZM51.0516 54.5695L16.4566 64.5287L16.474 64.5892L16.4916 64.6495L51.0516 54.5695ZM51.0517 54.5696L16.4917 64.6496L16.5059 64.6986L16.5204 64.7475L51.0517 54.5696ZM57.024 73.6286L23.0908 85.6511L23.0908 85.6511L57.024 73.6286ZM68.7671 103.287L36.2958 118.831L36.2958 118.831L68.7671 103.287ZM79.3725 120.82L108.902 100.229L108.902 100.229L79.3725 120.82ZM80.146 121.931L109.715 101.396L109.715 101.396L80.146 121.931ZM87.7533 130.627L70.4287 162.184L70.4287 162.184L87.7533 130.627ZM91.103 129.923L113.092 158.427L113.092 158.427L91.103 129.923ZM92.7533 128.852L77.9206 96.0498L77.9205 96.0498L92.7533 128.852ZM94.7903 127.652L74.8805 97.6583L74.8803 97.6584L94.7903 127.652ZM99.5289 125.302L109.947 159.761L109.947 159.761L99.5289 125.302ZM113.565 122.56L117.163 158.379H117.163L113.565 122.56ZM136.474 121.591L138.172 85.6313L136.474 121.591ZM151.154 124.335L138.738 158.126L138.738 158.126L151.154 124.335ZM162.549 130.002L145.307 161.604L145.31 161.606L162.549 130.002ZM162.549 130.002L145.31 161.606L145.875 161.914L146.449 162.201L162.549 130.002ZM162.549 130.002L179.791 98.3992L179.225 98.0905L178.649 97.8024L162.549 130.002ZM171.16 134.336L159.054 168.24L159.054 168.24L171.16 134.336ZM175.658 133.758L207.012 151.446L207.012 151.446L175.658 133.758ZM175.998 133.206L146.943 111.951L146.943 111.952L175.998 133.206ZM176.197 131.221L211.733 125.457L211.733 125.457L176.197 131.221ZM175.998 127.722L211.93 129.935L211.93 129.934L175.998 127.722ZM176.109 125.803L212.053 127.816L212.056 127.766L212.058 127.716L176.109 125.803ZM176.109 125.799L140.166 123.787L140.163 123.836L140.16 123.886L176.109 125.799ZM177.29 112.235L141.645 107.189L141.645 107.19L177.29 112.235ZM177.495 110.777L141.985 104.859L141.908 105.318L141.844 105.778L177.495 110.777ZM177.495 110.777L213.005 116.696L213.081 116.237L213.146 115.777L177.495 110.777ZM180.999 92.3904L146.582 81.8346L146.582 81.8346L180.999 92.3904ZM188.423 75.9357L158.663 55.6789L158.663 55.6789L188.423 75.9357ZM201.973 61.5774L180.818 32.4489L180.818 32.4489L201.973 61.5774ZM215.649 55.4897L204.781 21.1695L204.781 21.1695L215.649 55.4897ZM217.299 54.9642L206.247 20.7024L206.247 20.7025L217.299 54.9642ZM230.878 52.0697L236.403 87.6433L236.413 87.6417L236.424 87.6401L230.878 52.0697ZM230.882 52.0691L225.358 16.4954L225.348 16.4971L225.337 16.4987L230.882 52.0691ZM231.981 51.8983L226.437 16.3277L226.437 16.3277L231.981 51.8983ZM248.618 49.832L244.754 14.04L244.68 14.048L244.606 14.0563L248.618 49.832ZM248.619 49.832L252.483 85.624L252.557 85.616L252.631 85.6077L248.619 49.832ZM254.564 49.1562L250.382 13.3999L254.564 49.1562ZM274.731 46.8983L278.296 82.7213L278.296 82.7213L274.731 46.8983ZM279.53 46.2879L284.656 81.9211H284.656L279.53 46.2879ZM288.606 45.7684L285.539 81.6375L288.606 45.7684ZM319.357 58.6168L342.414 30.9696L342.414 30.9695L319.357 58.6168ZM328.922 69.5115L358.421 48.8771L358.421 48.8769L328.922 69.5115ZM340.544 100.382L375.703 92.6463V92.6463L340.544 100.382ZM342.663 115.244L378.494 111.764L378.494 111.763L342.663 115.244ZM342.843 117.088L378.67 113.568L378.67 113.568L342.843 117.088ZM344.007 132.736L379.964 130.982L379.949 130.688L379.93 130.395L344.007 132.736ZM344.007 132.737L308.049 134.492L308.065 134.805L308.086 135.119L344.007 132.737ZM344.007 132.742L379.931 130.401L379.929 130.381L379.928 130.36L344.007 132.742ZM344.659 142.267L308.762 144.995V144.995L344.659 142.267ZM345.392 150.883L381.247 147.653V147.653L345.392 150.883ZM346.36 163.377L382.31 161.487L382.31 161.486L346.36 163.377ZM346.719 168.74L310.818 171.398V171.398L346.719 168.74ZM346.846 183.864L311.322 178.03L311.322 178.03L346.846 183.864ZM342.062 194.854L372.527 214.035L372.527 214.035L342.062 194.854ZM340.875 196.771L371.784 215.228L371.785 215.227L340.875 196.771ZM339.997 198.271L308.848 180.223L308.848 180.224L339.997 198.271ZM333.938 205.481L355.038 234.649L355.039 234.649L333.938 205.481ZM332.976 206.183L311.696 177.146L311.696 177.146L332.976 206.183ZM318.129 213.226L310.009 178.154H310.009L318.129 213.226ZM290.702 216.476L293.745 252.347L293.745 252.347L290.702 216.476ZM283.765 217.097L287.519 252.901H287.519L283.765 217.097ZM278.569 217.039L292.628 183.898L292.628 183.897L278.569 217.039ZM278.463 217.01L270.838 181.826L270.831 181.828L270.823 181.83L278.463 217.01ZM278.348 217.129L249.355 195.789L249.353 195.792L278.348 217.129ZM278.118 217.421L305.551 240.733L305.551 240.733L278.118 217.421ZM277.936 219.442L242.627 226.46L242.627 226.46L277.936 219.442ZM278.281 223.551L314.253 224.961V224.961L278.281 223.551ZM278.196 226.284L242.21 225.301L242.196 225.792V226.284H278.196ZM278.196 226.284L314.183 227.267L314.196 226.776V226.284H278.196ZM277.151 242.104L312.896 246.385V246.385L277.151 242.104ZM272.31 273.401L307.662 280.204V280.204L272.31 273.401ZM269.743 283.14L304.105 293.876L269.743 283.14ZM267.31 293.243L303.018 297.82L303.018 297.82L267.31 293.243ZM266.665 317.443L302.518 314.195L302.518 314.194L266.665 317.443ZM271.505 339.546L237.547 351.496L237.547 351.496L271.505 339.546ZM279.893 355.033L250.081 375.213L250.081 375.214L279.893 355.033ZM283.284 358.12L264.804 389.015L264.804 389.015L283.284 358.12ZM285.701 360.517L252.93 375.419L252.93 375.419L285.701 360.517ZM287.155 371.004L322.157 379.42L322.157 379.419L287.155 371.004ZM280.982 380.146L300.599 410.332L300.599 410.331L280.982 380.146ZM274.577 381.151L272.165 417.07L272.165 417.07L274.577 381.151ZM271.782 380.995L273.124 345.02L273.115 345.019L271.782 380.995ZM271.224 380.974L272.557 344.999L271.891 344.974H271.224V380.974ZM271.223 380.974L269.894 416.95L270.558 416.974H271.223V380.974ZM251.806 379.058L262.501 344.683L262.501 344.683L251.806 379.058ZM244.544 372.52L277.666 358.417L277.666 358.417L244.544 372.52ZM242.024 360.315L206.365 365.257V365.257L242.024 360.315ZM241.033 353.756L276.481 347.475L276.481 347.475L241.033 353.756ZM239.194 342.881L274.713 337.014L274.708 336.988L274.704 336.963L239.194 342.881ZM239.193 342.878L203.675 348.744L203.679 348.77L203.683 348.796L239.193 342.878ZM237.401 332.208L201.928 338.347L201.928 338.348L237.401 332.208ZM235.661 323.174L200.36 330.234L200.364 330.251L200.367 330.267L235.661 323.174ZM235.661 323.174L270.962 316.113L270.959 316.097L270.956 316.08L235.661 323.174ZM232.626 305.183L196.754 308.212V308.212L232.626 305.183ZM233.168 291.04L197.422 286.774L197.422 286.774L233.168 291.04ZM233.593 287.114L269.463 290.165L269.463 290.165L233.593 287.114ZM234.619 279.085L270.202 284.551L270.202 284.551L234.619 279.085ZM235.206 274.854L199.397 271.151L199.397 271.151L235.206 274.854ZM235.62 272.154L271.037 278.608L271.037 278.608L235.62 272.154ZM235.528 268.4L262.624 244.697L262.623 244.697L235.528 268.4ZM230.899 268.195L235.364 303.917L236.09 303.826L236.812 303.706L230.899 268.195ZM230.899 268.195L226.433 232.473L225.707 232.564L224.986 232.684L230.899 268.195ZM229.56 268.4L225.159 232.67L225.159 232.67L229.56 268.4ZM226.293 269.163L216.104 234.635H216.104L226.293 269.163ZM223.752 269.851L231.89 304.919L231.891 304.919L223.752 269.851ZM221.974 270.272L230.333 305.288L230.333 305.288L221.974 270.272ZM215.004 271.778L209.394 236.218H209.394L215.004 271.778ZM211.291 272.064V308.064H211.779L212.266 308.051L211.291 272.064ZM211.29 272.064V236.064H210.803L210.315 236.077L211.29 272.064ZM208.779 272.213L204.421 236.478L204.421 236.478L208.779 272.213ZM205.213 272.833L212.273 308.134L212.281 308.132L212.289 308.131L205.213 272.833ZM205.212 272.833L211.131 308.343L211.703 308.248L212.273 308.134L205.212 272.833ZM205.212 272.833L199.294 237.323L198.713 237.42L198.135 237.536L205.212 272.833ZM203.132 273.226L197.308 237.7L197.308 237.7L203.132 273.226ZM201.267 273.329L201.193 237.329H201.192L201.267 273.329ZM198.585 273.885L174.33 247.282L174.33 247.282L198.585 273.885ZM197.928 275.542L233.762 278.991L233.762 278.991L197.928 275.542ZM197.456 278.401L232.48 286.726L197.456 278.401ZM196.662 281.572L161.782 272.663L161.727 272.876L161.675 273.09L196.662 281.572ZM196.662 281.573L231.587 290.305L231.618 290.18L231.648 290.055L196.662 281.573ZM196.662 281.574L231.542 290.482L231.565 290.394L231.587 290.305L196.662 281.574ZM193.907 293.567L229.301 300.144L229.301 300.144L193.907 293.567ZM193.382 296.341L228.583 303.884L228.669 303.482L228.746 303.078L193.382 296.341ZM193.382 296.342L158.181 288.799L158.095 289.201L158.018 289.605L193.382 296.342ZM190.681 314.862L226.619 316.969L226.619 316.969L190.681 314.862ZM191.324 337.609L155.46 340.727V340.727L191.324 337.609ZM193.23 348.883L158.122 356.851L158.122 356.851L193.23 348.883ZM193.907 351.967L158.641 359.201L158.641 359.201L193.907 351.967ZM194.417 354.536L229.75 347.64L229.75 347.64L194.417 354.536ZM196.487 362.775L162.901 375.738L162.902 375.738L196.487 362.775ZM200.43 369.535L171.016 390.291L171.016 390.291L200.43 369.535ZM201.005 370.358L171.289 390.679L171.289 390.679L201.005 370.358ZM202.352 371.72L186.052 403.818L186.056 403.82L202.352 371.72ZM202.818 372.034L227.617 345.938L227.616 345.937L202.818 372.034ZM203.304 372.405L223.026 342.289L223.024 342.287L203.304 372.405ZM204.232 373.424L172.915 391.18L172.915 391.18L204.232 373.424ZM204.689 374.123L175.109 394.643L175.11 394.643L204.689 374.123ZM206.168 377.942L170.226 379.985L170.226 379.985L206.168 377.942ZM206.189 378.308L170.251 380.417L170.254 380.472L170.257 380.526L206.189 378.308ZM206.189 378.315L242.127 376.196L242.124 376.147L242.121 376.097L206.189 378.315ZM205.039 387.621L235.238 407.217L235.238 407.216L205.039 387.621ZM174.064 392.783L166.743 428.031H166.743L174.064 392.783ZM162.931 386.17L191.822 364.691L191.822 364.691L162.931 386.17ZM160.819 378.31L124.906 380.814L124.906 380.814L160.819 378.31ZM160.511 374.554L124.696 378.2V378.2L160.511 374.554ZM159.626 358.396L123.643 359.521L123.649 359.688L123.655 359.855L159.626 358.396ZM159.626 358.396L195.608 357.271L195.603 357.104L195.596 356.938L159.626 358.396ZM159.22 349.708L123.303 352.152V352.152L159.22 349.708ZM159.069 345.99L195.065 345.453V345.453L159.069 345.99ZM158.415 343.741L183.875 318.289L183.874 318.289L158.415 343.741ZM155.577 343.575L162.899 378.823L162.899 378.823L155.577 343.575ZM153.414 343.9L151.763 307.938L151.763 307.938L153.414 343.9ZM151.162 344.227L157.08 379.737L157.456 379.674L157.83 379.604L151.162 344.227ZM151.161 344.227L145.243 308.716L144.867 308.779L144.493 308.85L151.161 344.227ZM145.399 344.338L155.289 309.723L155.288 309.723L145.399 344.338ZM143.124 343.949L147.449 308.21L145.294 307.949H143.124V343.949ZM143.124 343.949L138.8 379.688L140.954 379.949H143.124V343.949ZM135.345 338.738L168.378 324.426L135.345 338.738ZM131.393 317.919L95.6891 322.53L95.6891 322.53L131.393 317.919ZM130.182 309.216L165.708 303.389L130.182 309.216ZM129.224 303.532L93.7408 309.612L93.7408 309.612L129.224 303.532ZM126.956 287.597L162.796 284.206V284.206L126.956 287.597ZM125.665 261.463L89.6807 260.39L125.665 261.463ZM127.411 248.905L92.4861 240.174L92.3072 240.89L92.1577 241.612L127.411 248.905ZM127.411 248.905L162.336 257.636L162.515 256.92L162.665 256.197L127.411 248.905ZM128.245 244.363L92.5235 239.897L92.5235 239.897L128.245 244.363ZM128.822 241.457L163.614 250.706L163.614 250.706L128.822 241.457ZM128.569 238.231L161.586 223.881L161.586 223.881L128.569 238.231ZM121.794 229.518L144.066 201.235L144.066 201.235L121.794 229.518ZM109.586 223.282L110.484 187.293H110.484L109.586 223.282ZM105.647 226.904L72.7689 212.24L72.7688 212.24L105.647 226.904ZM104.638 229.09L137.002 244.856L137.002 244.856L104.638 229.09ZM101.681 237.045L67.5547 225.583L67.4334 225.944L67.3198 226.308L101.681 237.045ZM101.681 237.046L135.807 248.508L135.929 248.147L136.042 247.784L101.681 237.046ZM97.3262 248.449L129.565 264.47L129.565 264.47L97.3262 248.449ZM91.2966 258.042L120.783 278.696L120.783 278.696L91.2966 258.042ZM87.0014 264.582L118.341 282.297L118.341 282.297L87.0014 264.582ZM81.7037 275.541L48.7588 261.028L48.7588 261.028L81.7037 275.541ZM80.5476 278.133L47.8403 263.091L47.8403 263.091L80.5476 278.133ZM79.4245 279.938L105.207 305.063L105.207 305.063L79.4245 279.938ZM78.396 283.295L113.807 289.782V289.782L78.396 283.295ZM75.3852 306.313L111.348 307.955L75.3852 306.313ZM76.6766 320.939L42.0124 330.654L42.0124 330.654L76.6766 320.939ZM81.5898 331.444L50.1307 348.946L50.309 349.266L50.4938 349.583L81.5898 331.444ZM81.59 331.444L113.05 313.943L112.871 313.622L112.686 313.305L81.59 331.444ZM83.3429 334.704L50.9788 350.47L50.9789 350.471L83.3429 334.704ZM84.6857 337.286L53.2334 354.8L53.2334 354.8L84.6857 337.286ZM85.6333 339.324L51.8978 351.891L51.8979 351.891L85.6333 339.324ZM87.4295 345.675L123.102 340.833L123.102 340.833L87.4295 345.675ZM87.6241 346.92L123.193 341.362L123.166 341.195L123.139 341.027L87.6241 346.92ZM87.6242 346.92L52.0557 352.478L52.0819 352.646L52.1097 352.813L87.6242 346.92ZM87.4295 352.559L56.3981 334.309L56.3933 334.317L56.3885 334.325L87.4295 352.559ZM87.3644 352.669L56.3234 334.436L56.3198 334.442L87.3644 352.669ZM80.9777 356.645L88.8999 391.763L88.9001 391.763L80.9777 356.645ZM58.8212 359.012L62.0794 323.16L62.0786 323.16L58.8212 359.012ZM56.4962 358.835L54.0209 394.75H54.021L56.4962 358.835ZM45.4836 353.42L12.834 368.586H12.834L45.4836 353.42ZM43.6358 336.266L7.63724 336.592L43.6358 336.266ZM43.334 325.671L7.41646 328.106L43.334 325.671ZM41.1825 289.964L5.21318 291.451V291.451L41.1825 289.964ZM40.5924 283.657L4.94589 288.689L4.94589 288.689L40.5924 283.657ZM41.1825 273.616L76.4329 280.924L76.4329 280.924L41.1825 273.616ZM45.3355 260.283L11.6276 247.643L11.4994 247.985L11.3782 248.329L45.3355 260.283ZM45.3355 260.283L79.0434 272.924L79.1715 272.582L79.2927 272.238L45.3355 260.283ZM52.1529 237.048L16.7834 230.34L16.7834 230.34L52.1529 237.048ZM55.3167 209.131L91.1919 212.127V212.126L55.3167 209.131ZM57.7455 186.284L93.253 192.219L57.7455 186.284ZM63.7533 162.582L29.4803 151.566L29.4273 151.731L29.3758 151.897L63.7533 162.582ZM63.7534 162.582L98.0264 173.598L98.0795 173.433L98.131 173.268L63.7534 162.582ZM65.7061 155.955L30.7889 147.192L30.7889 147.192L65.7061 155.955ZM66.7705 151.058L102.014 143.717L102.014 143.717L66.7705 151.058ZM352.5 258.451L355.46 294.329L355.468 294.329L352.5 258.451ZM374.57 234.807L352.5 263.249L352.5 263.249L374.57 234.807ZM340.93 234.807L363 263.249L363 263.249L340.93 234.807ZM334.667 283.517L328.509 248.047H328.509L334.667 283.517ZM333.343 283.354L318.664 316.226L318.665 316.226L333.343 283.354ZM329.859 282.089L320.051 316.727L320.051 316.727L329.859 282.089ZM326.906 281.449L321.394 317.024L321.395 317.024L326.906 281.449ZM320.503 281.164L318.421 245.224L318.376 245.226L318.331 245.229L320.503 281.164ZM320.5 281.164L322.586 317.103L322.629 317.101L322.672 317.098L320.5 281.164ZM302.323 289.467L327.828 314.873L302.323 289.467ZM320.5 265.146L321.877 301.12L356.5 299.794V265.146H320.5ZM290.987 278.175L265.481 252.769L290.987 278.175ZM331.121 222.167L353.191 250.608L353.191 250.608L331.121 222.167ZM384.379 222.167L362.309 250.608H362.309L384.379 222.167ZM366.667 274.419L365.2 238.449L330.667 239.858V274.419H366.667ZM353.68 340.936L328.174 315.53V315.53L353.68 340.936ZM290.987 340.936L265.481 366.342L265.481 366.342L290.987 340.936ZM37.6838 170.951C38.4557 171.967 34.3538 167.152 32.2304 160.227C31.2669 157.084 30.9553 154.477 30.8329 153.023C30.7181 151.659 30.7218 150.649 30.7218 150.516H102.722C102.722 150.333 102.892 145.073 101.068 139.121C99.9611 135.512 98.4557 132.569 97.0306 130.298C96.4057 129.302 95.8561 128.532 95.5497 128.112C95.3901 127.893 95.2571 127.715 95.1776 127.61C95.103 127.51 95.0346 127.42 95.0266 127.41L37.6838 170.951ZM34.6014 166.335C35.9425 168.636 37.1341 170.227 37.6835 170.95L95.0268 127.41C94.9812 127.35 95.3251 127.798 95.7249 128.378C96.1342 128.972 96.4973 129.548 96.8108 130.086L34.6014 166.335ZM34.4248 166.097C34.4879 166.193 34.5405 166.273 34.5905 166.348C34.6398 166.423 34.6803 166.485 34.7155 166.539C34.7876 166.648 34.8221 166.702 34.8356 166.723C34.8591 166.76 34.7577 166.603 34.6015 166.335L96.8107 130.086C95.8527 128.442 94.8813 126.989 94.5116 126.429L34.4248 166.097ZM34.5144 166.232L34.5144 166.232L94.422 126.294L94.422 126.294L34.5144 166.232ZM30.775 160.324C32.4447 163.097 33.6452 164.916 34.4248 166.097L94.5116 126.429C93.9312 125.55 93.3667 124.695 92.46 123.189L30.775 160.324ZM20.9923 143.705C23.9633 148.987 28.6092 156.726 30.775 160.324L92.46 123.189C90.1799 119.402 86.1017 112.594 83.7447 108.404L20.9923 143.705ZM19.698 141.42C20.1455 142.207 20.5643 142.944 20.9923 143.705L83.7446 108.404C83.2274 107.485 82.7324 106.614 82.2948 105.844L19.698 141.42ZM19.4525 140.981L19.4526 140.981L82.5402 106.283L82.5401 106.283L19.4525 140.981ZM12.6106 127.678C15.066 133.334 17.7684 138.025 19.6979 141.42L82.2947 105.844C80.1204 102.018 79.3367 100.575 78.6559 99.0069L12.6106 127.678ZM5.94134 108.177C7.96145 116.521 10.2617 122.267 12.6106 127.678L78.6559 99.0069C77.1922 95.6349 76.6033 94.059 75.9197 91.2353L5.94134 108.177ZM1.72475 83.6542C2.57321 91.6156 4.20641 101.011 5.94134 108.177L75.9197 91.2353C74.9508 87.2337 73.8445 80.9526 73.3193 76.0242L1.72475 83.6542ZM0.812561 60.5626C0.725445 67.1718 0.82259 75.189 1.72474 83.6542L73.3193 76.0243C72.8478 71.5997 72.7369 66.7753 72.8063 61.5115L0.812561 60.5626ZM2.54411 37.9368C1.28152 45.0596 0.89539 54.2786 0.812561 60.5626L72.8063 61.5115C72.8384 59.0789 72.932 56.5394 73.0792 54.3125C73.1523 53.2069 73.232 52.2784 73.3097 51.5474C73.392 50.7739 73.4473 50.4562 73.4389 50.5035L2.54411 37.9368ZM21.9604 6.01204C11.2691 12.7554 7.12631 22.8559 6.05893 25.4622C4.251 29.8766 3.19509 34.2643 2.54411 37.9367L73.4389 50.5035C73.514 50.08 73.4084 50.9899 72.6876 52.7498C72.3235 53.6389 71.5278 55.4235 70.0684 57.5845C68.7684 59.5094 65.7597 63.5117 60.371 66.9105L21.9604 6.01204ZM73.93 17.145C73.0138 15.9802 70.1104 12.2973 65.8955 8.93131C63.8788 7.32078 59.4039 4.00322 52.9021 1.98584C45.6021 -0.279236 33.631 -1.34894 21.9604 6.01204L60.371 66.9105C49.3373 73.8698 38.0942 72.7775 31.5652 70.7517C25.8345 68.9735 22.1737 66.1571 20.9658 65.1925C19.4178 63.9562 18.4356 62.9095 18.0744 62.5154C17.6431 62.045 17.3876 61.7204 17.3365 61.6555L73.93 17.145ZM73.6068 16.7447C73.5415 16.6671 73.5891 16.7233 73.6517 16.7993C73.7265 16.8901 73.8226 17.0085 73.93 17.145L17.3365 61.6555C17.9036 62.3765 18.3707 62.9294 18.516 63.1021L73.6068 16.7447ZM75.712 19.4482C75.103 18.5932 74.5677 17.9154 74.2171 17.4825C73.909 17.1019 73.6198 16.7602 73.6068 16.7447L18.516 63.102C18.634 63.2422 18.4622 63.04 18.2619 62.7927C18.0193 62.493 17.5824 61.9422 17.0666 61.218L75.712 19.4482ZM82.0802 33.0125C81.7148 31.9118 81.159 30.2173 80.6527 28.8593C80.013 27.1437 78.5733 23.4656 75.712 19.4482L17.0665 61.218C15.9428 59.6402 15.0134 58.0421 14.2663 56.5057C13.6384 55.2147 13.2718 54.2338 13.1899 54.0142C13.0982 53.7683 13.0821 53.7084 13.2143 54.0992C13.3353 54.457 13.4932 54.9322 13.7471 55.697L82.0802 33.0125ZM82.4666 34.1756C82.327 33.7559 82.1999 33.373 82.0802 33.0125L13.7471 55.697C13.8662 56.0557 14.0011 56.4622 14.1503 56.9104L82.4666 34.1756ZM85.5829 44.3915C84.5866 41.0113 83.4354 37.0866 82.4666 34.1756L14.1503 56.9104C14.6279 58.3456 15.3609 60.8138 16.5203 64.7472L85.5829 44.3915ZM85.6467 44.6104L85.6466 44.6102L16.4566 64.5285L16.4566 64.5287L85.6467 44.6104ZM85.6117 44.4896L85.6116 44.4895L16.4916 64.6495L16.4917 64.6496L85.6117 44.4896ZM90.9572 61.6061C89.2324 56.738 87.4022 50.564 85.583 44.3917L16.5204 64.7475C18.2043 70.4607 20.5939 78.6036 23.0908 85.6511L90.9572 61.6061ZM101.238 87.7432C98.2957 81.5958 94.3685 71.2345 90.9572 61.6061L23.0908 85.6511C26.4991 95.2708 31.5312 108.878 36.2958 118.831L101.238 87.7432ZM108.902 100.229C105.856 95.8597 103.401 92.26 101.238 87.7432L36.2958 118.831C41.2305 129.14 46.7327 136.951 49.843 141.411L108.902 100.229ZM109.715 101.396C109.441 101.002 109.163 100.603 108.902 100.229L49.8429 141.411C50.1117 141.797 50.3496 142.138 50.577 142.465L109.715 101.396ZM105.078 99.0694C107.722 100.521 109.482 102.004 110.344 102.788C111.238 103.602 111.722 104.174 111.755 104.213C111.81 104.277 111.666 104.111 111.273 103.581C110.888 103.063 110.386 102.363 109.715 101.396L50.577 142.465C52.2759 144.912 54.487 148.015 56.9413 150.897C59.0481 153.371 63.5682 158.417 70.4287 162.184L105.078 99.0694ZM69.1138 101.419C68.619 101.801 69.4984 101.098 70.6276 100.359C71.8836 99.5367 74.5633 97.9033 78.3623 96.6583C82.4549 95.3171 87.3539 94.5869 92.691 95.1774C97.8851 95.7521 102.073 97.42 105.078 99.0694L70.4287 162.184C79.0565 166.92 89.9329 168.634 100.785 165.078C105.114 163.659 108.299 161.753 110.058 160.602C111.69 159.534 113.069 158.445 113.092 158.427L69.1138 101.419ZM77.9205 96.0498C72.8848 98.3269 69.1954 101.356 69.1138 101.419L113.092 158.427C113.461 158.142 112.869 158.613 112.092 159.14C111.206 159.741 109.666 160.714 107.586 161.654L77.9205 96.0498ZM74.8803 97.6584C74.4241 97.9612 74.7065 97.7676 75.1031 97.5269C75.5991 97.2258 76.5814 96.6553 77.9206 96.0498L107.586 161.654C111.394 159.933 114.415 157.834 114.7 157.645L74.8803 97.6584ZM89.1104 90.8424C81.6201 93.107 76.6427 96.4885 74.8805 97.6583L114.7 157.645C115.379 157.194 114.679 157.684 113.714 158.199C112.564 158.812 111.276 159.36 109.947 159.761L89.1104 90.8424ZM109.968 86.7399C101.166 87.624 94.4591 89.2252 89.1104 90.8424L109.947 159.761C111.536 159.281 113.65 158.732 117.163 158.379L109.968 86.7399ZM138.172 85.6313C129.246 85.2096 116.683 86.0655 109.968 86.7399L117.163 158.379C122.763 157.817 131.172 157.381 134.775 157.551L138.172 85.6313ZM163.57 90.5442C153.328 86.781 146.828 86.0402 138.172 85.6313L134.775 157.551C136.22 157.619 136.998 157.669 137.501 157.713C137.929 157.75 137.929 157.764 137.714 157.725C137.468 157.682 137.303 157.636 137.332 157.644C137.424 157.67 137.821 157.79 138.738 158.126L163.57 90.5442ZM179.79 98.3989C176.82 96.7785 169.755 92.8167 163.57 90.5442L138.738 158.126C138.348 157.983 138.283 157.939 138.64 158.103C138.964 158.252 139.455 158.489 140.146 158.842C141.592 159.58 143.225 160.468 145.307 161.604L179.79 98.3989ZM179.788 98.3975L179.787 98.3973L145.31 161.606L145.31 161.606L179.788 98.3975ZM178.649 97.8024L178.649 97.8023L146.449 162.201L146.449 162.201L178.649 97.8024ZM183.266 100.433C183.788 100.619 184.162 100.772 184.348 100.851C184.45 100.894 184.525 100.927 184.57 100.947C184.617 100.967 184.641 100.979 184.643 100.98C184.644 100.98 184.629 100.973 184.594 100.956C184.56 100.94 184.51 100.916 184.446 100.884C184.314 100.819 184.138 100.73 183.912 100.614C182.894 100.09 181.63 99.4024 179.791 98.3992L145.307 161.604C147.34 162.713 153.749 166.346 159.054 168.24L183.266 100.433ZM144.303 116.07C143.427 117.622 149.389 104.65 164.53 100.282C170.704 98.5012 175.81 98.8973 178.432 99.2786C181.08 99.6637 182.847 100.283 183.265 100.433L159.054 168.24C161.579 169.141 172.095 173.036 184.486 169.461C192.052 167.279 197.9 163.053 202.019 158.459C203.837 156.431 205.089 154.59 205.824 153.435C206.199 152.846 206.492 152.351 206.677 152.032C206.849 151.736 206.999 151.47 207.012 151.446L144.303 116.07ZM146.943 111.952C146.072 113.142 145.422 114.174 145.008 114.858C144.627 115.489 144.313 116.052 144.303 116.07L207.012 151.446C207.107 151.279 206.898 151.655 206.628 152.101C206.326 152.6 205.795 153.448 205.054 154.461L146.943 111.952ZM140.662 136.985C140.73 137.407 140.621 136.776 140.532 136.019C140.433 135.174 140.233 133.219 140.349 130.688C140.472 127.98 140.949 124.664 142.188 121.062C143.43 117.451 145.143 114.411 146.943 111.951L205.054 154.462C209.659 148.166 211.954 140.989 212.274 133.962C212.404 131.118 212.183 128.83 212.041 127.622C211.909 126.501 211.736 125.474 211.733 125.457L140.662 136.985ZM140.066 125.51C139.72 131.131 140.387 135.288 140.662 136.985L211.733 125.457C211.675 125.102 211.813 125.882 211.893 126.871C211.98 127.931 211.99 128.97 211.93 129.935L140.066 125.51ZM140.165 123.789C140.125 124.519 140.094 125.056 140.066 125.51L211.93 129.934C211.973 129.241 212.015 128.49 212.053 127.816L140.165 123.789ZM140.16 123.886L140.16 123.89L212.058 127.716L212.058 127.712L140.16 123.886ZM141.645 107.19C140.704 113.839 140.357 120.374 140.166 123.787L212.053 127.812C212.262 124.078 212.483 120.471 212.934 117.28L141.645 107.19ZM141.844 105.778C141.773 106.28 141.708 106.743 141.645 107.189L212.934 117.28C213.005 116.78 213.077 116.27 213.146 115.777L141.844 105.778ZM141.985 104.859L141.985 104.859L213.005 116.696L213.005 116.696L141.985 104.859ZM146.582 81.8346C143.871 90.6721 142.533 100.865 141.844 105.778L213.146 115.777C214.053 109.308 214.715 105.235 215.417 102.946L146.582 81.8346ZM158.663 55.6789C152.281 65.0549 148.93 74.1793 146.582 81.8346L215.417 102.946C216.78 98.5018 217.574 97.0875 218.183 96.1925L158.663 55.6789ZM180.818 32.4489C171.974 38.8723 163.974 47.8752 158.663 55.6789L218.183 96.1925C218.802 95.2824 219.803 94.0072 220.992 92.7367C221.558 92.1315 222.073 91.6281 222.498 91.2431C222.937 90.8451 223.156 90.6851 223.128 90.7059L180.818 32.4489ZM204.781 21.1695C200.966 22.3776 190.542 25.3865 180.818 32.4489L223.128 90.706C222.326 91.2882 221.901 91.4081 222.416 91.1962C222.677 91.0888 223.1 90.9275 223.798 90.6902C224.535 90.4393 225.325 90.1875 226.518 89.81L204.781 21.1695ZM206.247 20.7025C205.81 20.8435 205.352 20.9888 204.781 21.1695L226.518 89.81C227.056 89.6393 227.699 89.436 228.35 89.226L206.247 20.7025ZM225.354 16.4961C219.909 17.3416 213.973 18.2106 206.247 20.7024L228.35 89.226C230.019 88.6875 230.776 88.5171 236.403 87.6433L225.354 16.4961ZM225.337 16.4987L225.333 16.4993L236.424 87.6401L236.427 87.6394L225.337 16.4987ZM226.437 16.3277C226.072 16.3845 225.716 16.4398 225.358 16.4954L236.407 87.6427C236.762 87.5875 237.137 87.5292 237.525 87.4689L226.437 16.3277ZM244.606 14.0563C239.071 14.6771 231.956 15.4676 226.437 16.3277L237.525 87.4689C241.172 86.9003 246.531 86.2919 252.631 85.6077L244.606 14.0563ZM244.755 14.0399L244.754 14.04L252.482 85.6241L252.483 85.624L244.755 14.0399ZM250.382 13.3999C248.616 13.6065 246.691 13.8224 244.606 14.0563L252.631 85.6077C254.678 85.3781 256.779 85.1426 258.746 84.9124L250.382 13.3999ZM271.166 11.0753C265.118 11.6771 257.41 12.578 250.382 13.3999L258.746 84.9124C265.969 84.0677 272.996 83.2487 278.296 82.7213L271.166 11.0753ZM274.403 10.6548C272.935 10.8661 272.096 10.9827 271.166 11.0753L278.296 82.7213C280.978 82.4544 283.245 82.1241 284.656 81.9211L274.403 10.6548ZM291.673 9.89926C283.705 9.21796 277.465 10.2143 274.403 10.6548L284.656 81.9211C285.055 81.8637 285.359 81.82 285.647 81.7798C285.926 81.7409 286.134 81.7129 286.302 81.6916C286.636 81.6492 286.726 81.6439 286.679 81.6475C286.614 81.6524 286.437 81.6634 286.19 81.6635C285.941 81.6636 285.716 81.6526 285.539 81.6375L291.673 9.89926ZM318.779 16.2609C309.076 12.207 298.96 10.5224 291.673 9.89926L285.539 81.6375C286.669 81.7342 287.938 81.9153 289.113 82.1692C289.682 82.2923 290.149 82.4151 290.507 82.5229C290.871 82.6326 291.034 82.7006 291.021 82.6952L318.779 16.2609ZM342.414 30.9695C336.818 26.3027 328.388 20.2756 318.779 16.2609L291.021 82.6952C291.009 82.6899 291.198 82.7695 291.584 82.9793C291.963 83.1847 292.439 83.4656 292.997 83.826C294.144 84.568 295.311 85.4395 296.3 86.2641L342.414 30.9695ZM358.421 48.8769C355.236 44.3235 350.093 37.3735 342.414 30.9696L296.3 86.264C296.628 86.5379 297.442 87.315 299.422 90.1461L358.421 48.8769ZM368.544 68.0861C365.426 59.8028 362.518 54.7335 358.421 48.8771L299.422 90.1459C300.37 91.5003 300.458 91.7116 300.409 91.6207C300.352 91.5149 300.559 91.8543 301.161 93.4546L368.544 68.0861ZM375.703 92.6463C374.071 85.2307 371.194 75.1236 368.544 68.0861L301.161 93.4546C302.386 96.7071 304.353 103.426 305.385 108.117L375.703 92.6463ZM378.494 111.763C377.92 105.855 377.417 100.438 375.703 92.6463L305.385 108.117C306.089 111.32 306.273 112.97 306.832 118.726L378.494 111.763ZM378.67 113.568C378.61 112.949 378.552 112.355 378.494 111.764L306.832 118.725C306.889 119.313 306.95 119.945 307.015 120.609L378.67 113.568ZM379.93 130.395C379.582 125.041 379.169 118.647 378.67 113.568L307.015 120.608C307.373 124.248 307.707 129.303 308.083 135.076L379.93 130.395ZM379.964 130.983L379.964 130.982L308.049 134.49L308.049 134.492L379.964 130.983ZM379.928 130.36L379.928 130.356L308.086 135.119L308.086 135.123L379.928 130.36ZM380.555 139.54C380.353 136.876 380.152 133.797 379.931 130.401L308.083 135.082C308.298 138.375 308.525 141.867 308.762 144.995L380.555 139.54ZM381.247 147.653C380.997 144.877 380.764 142.282 380.555 139.54L308.762 144.995C309.014 148.313 309.292 151.392 309.537 154.112L381.247 147.653ZM382.31 161.486C382.048 156.498 381.621 151.801 381.247 147.653L309.537 154.112C309.929 158.461 310.229 161.836 310.409 165.267L382.31 161.486ZM382.621 166.082C382.481 164.188 382.378 162.774 382.31 161.487L310.409 165.267C310.525 167.459 310.689 169.656 310.818 171.398L382.621 166.082ZM382.37 189.698C383.903 180.362 382.908 169.951 382.621 166.082L310.818 171.398C311.032 174.293 311.162 176.145 311.202 177.707C311.221 178.418 311.211 178.804 311.205 178.944C311.198 179.105 311.203 178.751 311.322 178.03L382.37 189.698ZM372.527 214.035C374.303 211.214 380.302 202.289 382.37 189.698L311.322 178.03C311.458 177.2 311.656 176.436 311.878 175.766C312.096 175.105 312.312 174.617 312.446 174.339C312.572 174.077 312.622 174.008 312.491 174.231C312.327 174.509 312.12 174.844 311.598 175.672L372.527 214.035ZM371.785 215.227C371.906 215.024 372.075 214.752 372.527 214.035L311.598 175.672C311.232 176.254 310.6 177.255 309.966 178.315L371.785 215.227ZM371.147 216.318C371.437 215.818 371.611 215.518 371.784 215.228L309.966 178.315C309.514 179.073 309.111 179.77 308.848 180.223L371.147 216.318ZM355.039 234.649C364.722 227.644 369.031 219.971 371.147 216.317L308.848 180.224C308.63 180.599 308.511 180.805 308.406 180.983C308.31 181.145 308.289 181.177 308.314 181.137C308.374 181.041 308.689 180.544 309.218 179.867C309.773 179.158 310.424 178.429 311.146 177.738C311.851 177.064 312.451 176.593 312.838 176.313L355.039 234.649ZM354.256 235.22C354.593 234.973 354.823 234.805 355.038 234.649L312.839 176.313C312.412 176.621 312.003 176.921 311.696 177.146L354.256 235.22ZM326.249 248.298C340.903 244.906 349.272 238.873 354.256 235.22L311.696 177.146C309.876 178.48 310.032 178.308 310.357 178.136C310.562 178.028 310.717 177.966 310.759 177.951C310.785 177.941 310.565 178.025 310.009 178.154L326.249 248.298ZM293.745 252.347C300.984 251.732 316.787 250.489 326.249 248.298L310.009 178.154C310.015 178.152 309.952 178.167 309.811 178.195C309.673 178.223 309.482 178.259 309.233 178.303C308.729 178.392 308.079 178.497 307.274 178.613C305.645 178.847 303.676 179.088 301.436 179.33C296.923 179.817 292.047 180.232 287.658 180.604L293.745 252.347ZM287.519 252.901C288.729 252.774 290.726 252.603 293.745 252.347L287.658 180.604C284.976 180.832 282.109 181.073 280.011 181.293L287.519 252.901ZM264.51 250.18C273.409 253.955 281.811 253.499 287.519 252.901L280.011 181.293C279.091 181.39 280.148 181.209 282.282 181.359C283.452 181.442 285.214 181.642 287.349 182.155C288.445 182.419 289.542 182.743 290.629 183.124C291.161 183.311 291.626 183.489 292.01 183.643C292.367 183.786 292.655 183.909 292.628 183.898L264.51 250.18ZM286.087 252.193C277.449 254.065 270.579 252.234 268 251.447C265.789 250.772 263.804 249.881 264.511 250.18L292.628 183.897C292.627 183.897 292.621 183.895 292.614 183.892C292.607 183.889 292.596 183.884 292.582 183.878C292.556 183.867 292.512 183.848 292.457 183.825C292.356 183.783 292.157 183.7 291.907 183.6C291.484 183.431 290.413 183.009 289.011 182.581C286.398 181.784 279.502 179.949 270.838 181.826L286.087 252.193ZM307.342 238.469C307.874 237.746 306.601 239.555 305.067 241.244C303.479 242.993 297.184 249.783 286.102 252.19L270.823 181.83C259.709 184.243 253.387 191.054 251.764 192.842C250.749 193.959 250.027 194.899 249.793 195.205C249.64 195.405 249.52 195.567 249.461 195.647C249.428 195.69 249.401 195.727 249.385 195.748C249.37 195.769 249.357 195.787 249.355 195.789L307.342 238.469ZM305.551 240.733C306.474 239.647 307.123 238.766 307.344 238.466L249.353 195.792C249.343 195.805 249.544 195.531 249.805 195.194C250.075 194.846 250.369 194.482 250.685 194.109L305.551 240.733ZM313.246 212.424C313.154 211.963 313.295 212.635 313.417 213.438C313.548 214.312 313.852 216.52 313.762 219.401C313.666 222.522 313.115 226.421 311.516 230.628C309.918 234.833 307.713 238.189 305.551 240.733L250.686 194.109C245.02 200.777 242.052 208.929 241.797 217.172C241.698 220.371 242.033 222.921 242.222 224.174C242.4 225.359 242.625 226.449 242.627 226.46L313.246 212.424ZM314.253 224.961C314.494 218.828 313.634 214.376 313.246 212.423L242.627 226.46C242.7 226.829 242.532 226.041 242.421 225.039C242.305 223.982 242.275 222.995 242.309 222.141L314.253 224.961ZM314.183 227.267C314.212 226.218 314.231 225.535 314.253 224.961L242.309 222.141C242.266 223.225 242.235 224.362 242.21 225.301L314.183 227.267ZM314.196 226.284V226.284H242.196V226.284H314.196ZM312.896 246.385C313.9 237.998 314.072 231.349 314.183 227.267L242.21 225.302C242.106 229.098 241.991 232.941 241.406 237.823L312.896 246.385ZM307.662 280.204C309.479 270.758 311.81 255.446 312.896 246.385L241.406 237.823C240.501 245.379 238.422 258.998 236.959 266.599L307.662 280.204ZM304.105 293.876C305.006 290.993 306.483 286.331 307.662 280.204L236.959 266.599C236.612 268.4 236.226 269.701 235.381 272.405L304.105 293.876ZM303.018 297.82C303.077 297.363 303.097 297.104 304.105 293.876L235.381 272.405C234.383 275.602 232.551 281.27 231.603 288.665L303.018 297.82ZM302.518 314.194C302.108 309.667 302.326 303.219 303.018 297.82L231.603 288.665C230.413 297.947 229.823 309.784 230.812 320.691L302.518 314.194ZM305.464 327.596C304.146 323.851 302.922 318.651 302.518 314.195L230.812 320.691C231.806 331.668 234.455 342.711 237.547 351.496L305.464 327.596ZM309.705 334.853C308.587 333.201 307.67 331.813 306.843 330.376C305.993 328.899 305.597 327.975 305.464 327.596L237.547 351.496C241.473 362.655 247.809 371.857 250.081 375.213L309.705 334.853ZM301.764 327.225C301.169 326.869 302.837 327.808 304.655 329.317C306.701 331.016 308.402 332.928 309.705 334.853L250.081 375.214C255.752 383.591 262.385 387.568 264.804 389.015L301.764 327.225ZM318.472 345.616C312.913 333.39 303.209 328.089 301.764 327.225L264.804 389.015C265.792 389.605 263.256 388.212 260.7 385.937C257.437 383.032 254.752 379.426 252.93 375.419L318.472 345.616ZM322.157 379.419C324.101 371.337 323.426 364.09 322.696 359.666C321.911 354.913 320.486 350.044 318.472 345.616L252.93 375.419C252.127 373.653 251.822 372.391 251.658 371.398C251.557 370.788 251.437 369.826 251.43 368.548C251.424 367.329 251.516 365.234 252.152 362.588L322.157 379.419ZM300.599 410.331C307.428 405.894 311.977 400.17 314.586 396.299C317.341 392.212 320.481 386.393 322.157 379.42L252.152 362.588C252.656 360.495 253.281 359.022 253.662 358.215C254.073 357.343 254.487 356.642 254.882 356.056C255.271 355.479 255.835 354.725 256.658 353.848C257.394 353.064 258.928 351.544 261.364 349.961L300.599 410.331ZM272.165 417.07C274.201 417.206 287.364 418.933 300.599 410.332L261.364 349.961C262.834 349.005 264.809 347.929 267.259 347.039C269.743 346.138 272.068 345.664 274.039 345.44C275.857 345.233 277.183 345.263 277.537 345.273C277.79 345.28 277.895 345.292 276.988 345.231L272.165 417.07ZM270.44 416.97C270.91 416.987 271.343 417.015 272.165 417.07L276.989 345.231C276.189 345.178 274.786 345.082 273.124 345.02L270.44 416.97ZM269.891 416.949L270.449 416.97L273.115 345.019L272.557 344.999L269.891 416.949ZM271.223 416.974H271.224V344.974H271.223V416.974ZM241.112 413.432C247.663 415.471 255.052 416.082 258.462 416.348C262.969 416.698 267.428 416.858 269.894 416.95L272.553 344.999C269.946 344.902 266.883 344.785 264.043 344.564C262.634 344.455 261.615 344.344 260.979 344.255C260.675 344.212 260.622 344.197 260.769 344.226C260.868 344.246 261.512 344.375 262.501 344.683L241.112 413.432ZM211.421 386.624C212.328 388.753 215.526 396.748 222.93 403.479C230.343 410.218 238.589 412.648 241.112 413.432L262.501 344.683C260.484 344.056 265.996 345.325 271.362 350.202C274.165 352.751 275.904 355.294 276.856 356.919C277.639 358.254 277.963 359.115 277.666 358.417L211.421 386.624ZM206.365 365.257C206.723 367.839 207.855 378.248 211.421 386.624L277.666 358.417C278.222 359.722 278.462 360.614 278.508 360.785C278.566 361.001 278.539 360.938 278.451 360.468C278.366 360.014 278.26 359.381 278.125 358.483C277.989 357.573 277.853 356.598 277.683 355.373L206.365 365.257ZM205.585 360.036C205.822 361.377 206.042 362.928 206.365 365.257L277.683 355.373C277.397 353.306 276.996 350.385 276.481 347.475L205.585 360.036ZM203.675 348.748C204.29 352.473 204.912 356.24 205.585 360.036L276.481 347.475C275.894 344.163 275.34 340.813 274.713 337.014L203.675 348.748ZM203.683 348.797L203.684 348.799L274.704 336.963L274.704 336.961L203.683 348.797ZM203.683 348.796L203.683 348.797L274.704 336.961L274.704 336.959L203.683 348.796ZM201.928 338.348C202.561 342.004 203.12 345.384 203.675 348.744L274.712 337.011C274.161 333.675 273.56 330.036 272.874 326.069L201.928 338.348ZM200.367 330.267C201.037 333.602 201.556 336.194 201.928 338.347L272.874 326.069C272.302 322.768 271.573 319.155 270.956 316.081L200.367 330.267ZM200.36 330.234L200.36 330.234L270.962 316.114L270.962 316.113L200.36 330.234ZM196.754 308.212C197.387 315.711 199.252 324.721 200.367 330.267L270.956 316.08C269.535 309.01 268.707 304.623 268.499 302.153L196.754 308.212ZM197.422 286.774C196.93 290.893 195.942 298.598 196.754 308.212L268.499 302.153C268.361 300.519 268.445 299.235 268.914 295.306L197.422 286.774ZM197.722 284.063C197.675 284.619 197.597 285.302 197.422 286.774L268.914 295.306C269.062 294.071 269.294 292.153 269.463 290.165L197.722 284.063ZM199.037 273.618C198.687 275.892 198.095 279.678 197.722 284.063L269.463 290.165C269.605 288.504 269.835 286.938 270.202 284.551L199.037 273.618ZM199.397 271.151C199.398 271.145 199.38 271.312 199.314 271.775C199.246 272.249 199.163 272.792 199.037 273.618L270.202 284.551C270.404 283.234 270.775 280.875 271.015 278.557L199.397 271.151ZM200.203 265.701C200.076 266.4 199.662 268.591 199.397 271.151L271.015 278.557C270.997 278.734 270.979 278.875 270.966 278.973C270.952 279.071 270.943 279.132 270.941 279.143C270.94 279.148 270.941 279.144 270.944 279.126C270.947 279.107 270.952 279.078 270.96 279.035C270.967 278.991 270.977 278.936 270.99 278.865C270.997 278.829 271.004 278.791 271.011 278.748C271.019 278.704 271.027 278.659 271.037 278.608L200.203 265.701ZM208.432 292.103C199.886 282.334 199.869 271.672 199.948 268.887C200.024 266.175 200.532 263.898 200.203 265.701L271.037 278.608C271.091 278.31 271.275 277.32 271.431 276.278C271.587 275.238 271.852 273.291 271.919 270.918C272.033 266.873 271.812 255.201 262.624 244.697L208.432 292.103ZM236.812 303.706C238.407 303.441 236.639 303.81 234.366 303.857C233.105 303.884 229.941 303.883 225.939 302.873C221.925 301.861 214.644 299.203 208.432 292.103L262.623 244.697C256.04 237.171 248.219 234.238 243.55 233.06C238.892 231.885 234.956 231.829 232.857 231.873C228.907 231.956 225.198 232.649 224.986 232.684L236.812 303.706ZM235.364 303.917L235.364 303.917L226.434 232.473L226.433 232.473L235.364 303.917ZM233.962 304.13C235.278 303.968 236.536 303.752 236.812 303.706L224.986 232.684C224.924 232.694 224.876 232.702 224.829 232.71C224.783 232.718 224.747 232.724 224.716 232.729C224.652 232.739 224.63 232.743 224.633 232.742C224.635 232.742 224.684 232.734 224.765 232.723C224.846 232.711 224.981 232.692 225.159 232.67L233.962 304.13ZM236.482 303.691C236.796 303.598 236.876 303.575 236.922 303.562C236.942 303.556 236.799 303.597 236.558 303.657C236.02 303.79 235.11 303.989 233.962 304.13L225.159 232.67C220.631 233.228 216.955 234.384 216.104 234.635L236.482 303.691ZM231.891 304.919C234.016 304.426 235.75 303.907 236.482 303.691L216.104 234.635C215.333 234.862 215.441 234.823 215.614 234.783L231.891 304.919ZM230.333 305.288C231.004 305.128 231.488 305.012 231.89 304.919L215.615 234.783C214.948 234.938 214.227 235.11 213.615 235.256L230.333 305.288ZM220.614 307.338C224.263 306.763 228.587 305.705 230.333 305.288L213.616 235.256C212.435 235.537 211.449 235.772 210.549 235.973C210.116 236.069 209.786 236.139 209.546 236.186C209.289 236.238 209.256 236.24 209.394 236.218L220.614 307.338ZM212.266 308.051C213.375 308.021 216.649 307.964 220.614 307.338L209.394 236.218C210.521 236.04 211.44 236.047 210.316 236.077L212.266 308.051ZM211.291 308.064H211.291V236.064H211.291V308.064ZM211.29 308.064H211.291V236.064H211.29V308.064ZM213.137 307.949C212.506 308.025 212.049 308.052 211.887 308.061C211.81 308.065 211.786 308.065 211.854 308.063C211.935 308.06 212.035 308.057 212.266 308.051L210.315 236.077C209.697 236.094 207.222 236.136 204.421 236.478L213.137 307.949ZM212.289 308.131C212.589 308.071 212.794 308.03 212.987 307.992C213.17 307.956 213.289 307.934 213.367 307.92C213.537 307.889 213.425 307.913 213.137 307.949L204.421 236.478C201.616 236.82 199.064 237.349 198.136 237.535L212.289 308.131ZM212.273 308.134L212.273 308.134L198.153 237.532L198.152 237.532L212.273 308.134ZM211.13 308.343L211.131 308.343L199.294 237.323L199.294 237.323L211.13 308.343ZM208.956 308.752C210.359 308.522 211.706 308.248 212.289 308.131L198.135 237.536C197.745 237.614 197.539 237.655 197.365 237.688C197.203 237.719 197.206 237.717 197.308 237.7L208.956 308.752ZM201.34 309.329C201.43 309.329 205 309.4 208.957 308.752L197.308 237.7C198.894 237.44 200.121 237.37 200.699 237.346C201.216 237.325 201.613 237.328 201.193 237.329L201.34 309.329ZM222.84 300.487C215.708 306.99 208.1 308.546 205.143 308.994C202.438 309.404 200.1 309.332 201.341 309.329L201.192 237.329C201.044 237.33 200.158 237.328 199.189 237.362C198.187 237.398 196.447 237.49 194.35 237.808C190.474 238.395 182.067 240.228 174.33 247.282L222.84 300.487ZM233.762 278.991C233.807 278.524 233.74 279.314 233.607 280.22C233.451 281.29 233.067 283.575 232.1 286.368C231.052 289.395 229.562 292.336 227.631 295.059C225.82 297.613 224.021 299.41 222.84 300.487L174.33 247.282C170.958 250.357 166.634 255.386 164.062 262.813C163.009 265.855 162.569 268.41 162.367 269.79C162.263 270.498 162.197 271.082 162.161 271.418C162.127 271.737 162.099 272.035 162.093 272.093L233.762 278.991ZM232.48 286.726C233.356 283.042 233.633 280.332 233.762 278.991L162.093 272.092C162.07 272.332 162.108 271.902 162.186 271.375C162.267 270.833 162.358 270.388 162.432 270.077L232.48 286.726ZM231.542 290.481C231.827 289.368 232.185 287.969 232.48 286.726L162.432 270.077C162.306 270.607 162.116 271.352 161.782 272.663L231.542 290.481ZM231.648 290.055L231.649 290.054L161.675 273.09L161.675 273.092L231.648 290.055ZM231.587 290.305L231.587 290.305L161.736 272.842L161.736 272.842L231.587 290.305ZM229.301 300.144C229.876 297.05 230.68 293.858 231.542 290.482L161.781 272.665C160.973 275.83 159.585 281.218 158.513 286.989L229.301 300.144ZM228.746 303.078C228.926 302.136 229.118 301.127 229.301 300.144L158.513 286.989C158.365 287.784 158.204 288.629 158.019 289.604L228.746 303.078ZM228.583 303.885L228.583 303.884L158.182 288.798L158.181 288.799L228.583 303.885ZM226.619 316.969C226.826 313.438 227.599 309.099 228.746 303.079L158.018 289.605C157.033 294.775 155.27 303.752 154.742 312.755L226.619 316.969ZM227.189 334.49C226.692 328.779 226.345 321.644 226.619 316.969L154.742 312.754C154.155 322.761 154.881 334.071 155.46 340.727L227.189 334.49ZM228.337 340.916C227.652 337.897 227.366 336.531 227.189 334.49L155.46 340.727C156.094 348.021 157.357 353.479 158.122 356.851L228.337 340.916ZM229.173 344.733C228.874 343.276 228.559 341.894 228.337 340.916L158.122 356.851C158.372 357.951 158.518 358.601 158.641 359.201L229.173 344.733ZM229.75 347.64C229.593 346.834 229.394 345.813 229.173 344.733L158.641 359.201C158.783 359.891 158.918 360.582 159.084 361.433L229.75 347.64ZM230.072 349.812C230.392 350.642 230.462 351.048 230.356 350.6C230.307 350.395 230.236 350.074 230.131 349.56C230.022 349.028 229.908 348.449 229.75 347.64L159.084 361.432C159.535 363.745 160.606 369.792 162.901 375.738L230.072 349.812ZM229.844 348.779C229.538 348.346 229.377 348.116 229.228 347.897C229.09 347.694 229.038 347.61 229.039 347.612C229.042 347.616 229.067 347.656 229.109 347.73C229.15 347.803 229.217 347.922 229.301 348.084C229.457 348.385 229.747 348.972 230.072 349.812L162.902 375.738C165.765 383.158 170.268 389.231 171.016 390.291L229.844 348.779ZM230.722 350.037C230.376 349.532 230.014 349.02 229.844 348.779L171.016 390.291C171.131 390.454 171.199 390.551 171.256 390.632C171.312 390.712 171.315 390.717 171.289 390.679L230.722 350.037ZM218.653 339.621C218.494 339.541 219.826 340.195 221.351 341.159C223.039 342.226 224.625 343.436 226.082 344.764C228.73 347.177 230.261 349.364 230.721 350.037L171.289 390.679C172.459 392.39 174.512 395.18 177.58 397.976C181.419 401.476 185.037 403.303 186.052 403.818L218.653 339.621ZM227.616 345.937C223.488 342.014 219.456 340.029 218.649 339.619L186.056 403.82C186.28 403.934 184.861 403.24 183.263 402.224C181.43 401.059 179.664 399.693 178.021 398.132L227.616 345.937ZM223.024 342.287C222.871 342.187 223.604 342.658 224.452 343.283C225.416 343.995 226.498 344.874 227.617 345.938L178.019 398.13C180.732 400.709 183.252 402.307 183.584 402.524L223.024 342.287ZM235.548 355.668C234.225 353.334 232.209 350.298 229.186 347.277C226.139 344.232 223.158 342.375 223.026 342.289L183.581 402.522C183.742 402.628 181.04 400.953 178.292 398.206C175.566 395.483 173.868 392.861 172.915 391.18L235.548 355.668ZM234.268 353.603C234.137 353.414 234.272 353.607 234.437 353.855C234.618 354.128 235.044 354.779 235.548 355.668L172.915 391.18C173.544 392.288 174.112 393.164 174.447 393.669C174.766 394.149 175.067 394.582 175.109 394.643L234.268 353.603ZM242.11 375.898C241.402 363.453 235.441 355.293 234.268 353.602L175.11 394.643C175.499 395.204 174.084 393.288 172.866 390.619C171.469 387.56 170.451 383.939 170.226 379.985L242.11 375.898ZM242.127 376.199C242.119 376.056 242.114 375.974 242.11 375.898L170.226 379.985C170.235 380.143 170.244 380.304 170.251 380.417L242.127 376.199ZM242.121 376.097L242.121 376.09L170.257 380.526L170.258 380.533L242.121 376.097ZM235.238 407.216C241.238 397.971 241.972 388.496 242.178 385.317C242.453 381.064 242.187 377.217 242.127 376.196L170.252 380.434C170.337 381.881 170.275 381.486 170.328 380.669C170.36 380.171 170.467 378.841 170.912 377.01C171.328 375.296 172.336 371.883 174.839 368.025L235.238 407.216ZM202.246 428.617C208.894 427.509 216.146 425.127 222.925 420.286C229.62 415.505 233.429 410.004 235.238 407.217L174.839 368.025C175.008 367.765 177.043 364.577 181.083 361.692C185.206 358.748 188.923 357.844 190.409 357.597L202.246 428.617ZM166.743 428.031C173.001 429.331 180.065 429.648 184.972 429.699C189.962 429.751 196.584 429.561 202.246 428.617L190.409 357.597C190.979 357.502 190.773 357.568 189.55 357.632C188.494 357.688 187.159 357.718 185.722 357.703C184.28 357.688 182.976 357.63 181.966 357.552C180.786 357.459 180.693 357.392 181.386 357.536L166.743 428.031ZM134.041 407.649C141.84 418.139 153.013 425.179 166.743 428.031L181.386 357.536C182.16 357.696 184.044 358.22 186.347 359.66C188.725 361.147 190.558 362.991 191.822 364.691L134.041 407.649ZM124.906 380.814C125.08 383.301 125.199 395.756 134.041 407.649L191.822 364.691C192.77 365.967 193.781 367.586 194.666 369.53C195.553 371.475 196.092 373.257 196.418 374.682C196.718 375.996 196.81 376.905 196.818 376.99C196.825 377.05 196.819 377.009 196.802 376.787C196.784 376.552 196.765 376.277 196.732 375.806L124.906 380.814ZM124.696 378.2C124.778 378.998 124.83 379.714 124.906 380.814L196.732 375.806C196.657 374.728 196.537 372.975 196.326 370.908L124.696 378.2ZM123.655 359.855C123.865 365.023 124.173 373.064 124.696 378.2L196.326 370.908C196.083 368.523 195.852 363.256 195.596 356.938L123.655 359.855ZM123.643 359.52L123.643 359.521L195.608 357.272L195.608 357.271L123.643 359.52ZM123.303 352.152C123.394 353.489 123.501 356.057 123.655 359.854L195.596 356.938C195.463 353.659 195.312 349.843 195.137 347.265L123.303 352.152ZM123.073 346.527C123.089 347.562 123.118 349.437 123.303 352.152L195.137 347.265C195.104 346.787 195.09 346.454 195.082 346.231C195.074 346 195.071 345.82 195.065 345.453L123.073 346.527ZM132.954 369.192C132.849 369.086 131.131 367.415 129.35 364.888C127.134 361.742 125.342 358.076 124.237 354.02C123.307 350.607 123.147 347.89 123.105 347.166C123.065 346.465 123.064 345.874 123.073 346.527L195.065 345.453C195.064 345.378 195.054 344.22 194.988 343.059C194.92 341.876 194.716 338.806 193.704 335.092C191.016 325.227 185.016 319.431 183.875 318.289L132.954 369.192ZM162.899 378.823C164.582 378.473 161.368 379.286 157.611 379.327C152.714 379.38 142.033 378.273 132.955 369.193L183.874 318.289C174.171 308.583 162.678 307.267 156.822 307.331C154.019 307.362 151.762 307.693 150.594 307.885C149.444 308.075 148.392 308.299 148.254 308.328L162.899 378.823ZM155.064 379.862C159.129 379.676 162.58 378.889 162.899 378.823L148.255 308.328C147.824 308.417 148.191 308.336 148.681 308.255C149.245 308.162 150.336 308.004 151.763 307.938L155.064 379.862ZM157.83 379.604C158.057 379.561 158.119 379.549 158.156 379.543C158.18 379.538 158.068 379.559 157.875 379.589C157.549 379.64 156.506 379.796 155.064 379.862L151.763 307.938C148.046 308.109 144.639 308.822 144.494 308.849L157.83 379.604ZM157.08 379.737L157.08 379.737L145.244 308.716L145.243 308.716L157.08 379.737ZM135.509 378.953C146.904 382.209 157.039 379.753 157.83 379.604L144.493 308.85C143.336 309.068 144.549 308.796 146.154 308.695C148.08 308.575 151.366 308.603 155.289 309.723L135.509 378.953ZM138.8 379.688C139.333 379.753 139.058 379.724 138.67 379.662C138.226 379.592 137.051 379.394 135.51 378.953L155.288 309.723C151.341 308.595 147.586 308.226 147.449 308.21L138.8 379.688ZM143.124 379.949H143.124V307.949H143.124V379.949ZM102.312 353.049C106.23 362.092 112.946 370.032 122.526 374.945C130.468 379.017 138.283 379.626 138.8 379.688L147.447 308.209C145.258 307.945 150.16 308.201 155.377 310.876C158.385 312.418 161.261 314.557 163.711 317.268C166.095 319.906 167.538 322.489 168.378 324.426L102.312 353.049ZM95.6891 322.53C96.1721 326.269 96.8047 331.214 97.5922 335.799C98.2284 339.503 99.5191 346.603 102.312 353.049L168.378 324.426C169.076 326.037 169.232 326.904 169.077 326.269C168.97 325.835 168.789 324.986 168.553 323.611C168.067 320.783 167.624 317.395 167.096 313.308L95.6891 322.53ZM94.6572 315.044C94.9421 316.78 95.2504 319.133 95.6891 322.53L167.096 313.308C166.709 310.307 166.234 306.598 165.708 303.389L94.6572 315.044ZM93.7408 309.612C94.0431 311.377 94.3422 313.123 94.6572 315.044L165.708 303.389C165.346 301.182 165.006 299.198 164.707 297.453L93.7408 309.612ZM91.1161 290.988C91.8277 298.509 92.7985 304.113 93.7408 309.612L164.707 297.453C163.767 291.967 163.226 288.749 162.796 284.206L91.1161 290.988ZM89.6807 260.39C89.3947 269.98 90.345 282.837 91.1161 290.988L162.796 284.206C162.061 276.44 161.505 267.358 161.649 262.536L89.6807 260.39ZM92.1577 241.612C91.4704 244.935 89.9293 252.055 89.6807 260.39L161.649 262.536C161.687 261.254 161.918 259.81 162.665 256.198L92.1577 241.612ZM92.4862 240.173L92.4861 240.174L162.336 257.636L162.336 257.636L92.4862 240.173ZM92.5235 239.897C92.553 239.661 92.5753 239.527 92.5758 239.524C92.5765 239.52 92.5647 239.591 92.5315 239.766C92.4983 239.941 92.4529 240.172 92.3881 240.492C92.3221 240.817 92.2499 241.167 92.1576 241.612L162.665 256.197C162.926 254.935 163.59 251.846 163.967 248.829L92.5235 239.897ZM94.0301 232.209C93.7006 233.449 92.9949 236.127 92.5235 239.897L163.967 248.829C163.922 249.191 163.848 249.649 163.738 250.16C163.637 250.634 163.534 251.006 163.614 250.706L94.0301 232.209ZM95.5528 252.581C95.2171 251.808 93.2988 247.433 93.0898 241.213C92.8951 235.417 94.4674 230.564 94.0301 232.209L163.614 250.706C163.635 250.624 163.749 250.2 163.863 249.742C163.985 249.25 164.179 248.442 164.368 247.453C164.773 245.334 165.169 242.361 165.049 238.795C164.809 231.648 162.61 226.239 161.586 223.881L95.5528 252.581ZM99.5213 257.802C98.0686 256.658 97.3663 255.751 97.1284 255.433C96.957 255.203 96.7666 254.925 96.5503 254.561C96.355 254.232 95.9862 253.578 95.5529 252.581L161.586 223.881C158.442 216.649 152.476 207.858 144.066 201.235L99.5213 257.802ZM108.688 259.271C105.581 259.193 103.242 258.686 102.077 258.395C100.795 258.075 99.8796 257.746 99.4258 257.573C98.5586 257.242 98.2306 257.04 98.4999 257.185C98.6884 257.287 98.9936 257.465 99.3191 257.677C99.6734 257.908 99.7436 257.977 99.5214 257.802L144.066 201.235C140.714 198.596 136.615 195.936 132.651 193.8C130.622 192.707 128.014 191.417 125.084 190.3C122.851 189.448 117.363 187.465 110.484 187.293L108.688 259.271ZM138.525 241.568C138.96 240.593 138.711 241.187 138.318 241.939C137.902 242.733 136.366 245.621 133.415 248.759C129.999 252.391 125.448 255.573 119.928 257.482C114.933 259.209 110.767 259.323 108.688 259.271L110.484 187.293C102.618 187.097 90.6337 189.152 80.9654 199.433C77.4615 203.158 75.4444 206.8 74.5403 208.526C73.6581 210.21 72.9142 211.914 72.7689 212.24L138.525 241.568ZM137.002 244.856C137.701 243.423 138.248 242.189 138.525 241.568L72.7688 212.24C72.4787 212.891 72.3781 213.111 72.2739 213.325L137.002 244.856ZM135.807 248.508C136.373 246.824 136.742 245.73 137.063 244.845C137.21 244.438 137.291 244.233 137.315 244.174C137.348 244.092 137.243 244.362 137.002 244.856L72.274 213.324C70.0846 217.819 68.2793 223.426 67.5547 225.583L135.807 248.508ZM136.042 247.784L136.042 247.783L67.3198 226.308L67.3197 226.308L136.042 247.784ZM129.565 264.47C132.512 258.539 134.743 251.678 135.807 248.508L67.5545 225.583C66.8731 227.612 66.3582 229.137 65.8519 230.508C65.3294 231.922 65.0764 232.451 65.0872 232.429L129.565 264.47ZM120.783 278.696C122.63 276.059 126.475 270.688 129.565 264.47L65.0872 232.429C65.0395 232.525 64.8191 232.945 64.2415 233.838C63.6323 234.781 62.9309 235.789 61.8104 237.389L120.783 278.696ZM118.341 282.297C118.332 282.313 118.37 282.245 118.475 282.077C118.58 281.909 118.731 281.676 118.944 281.356C119.409 280.66 119.948 279.888 120.783 278.696L61.8104 237.389C60.4727 239.299 57.8747 242.952 55.6616 246.867L118.341 282.297ZM114.649 290.054C116.11 286.736 117.228 284.267 118.341 282.297L55.6616 246.867C52.5139 252.436 50.0362 258.128 48.7588 261.028L114.649 290.054ZM113.255 293.174C113.743 292.113 114.256 290.945 114.649 290.054L48.7588 261.028C48.2947 262.081 48.0357 262.667 47.8403 263.091L113.255 293.174ZM105.207 305.063C108.543 301.64 111.117 297.822 113.255 293.174L47.8403 263.091C48.0793 262.572 48.7825 261.101 50.0404 259.241C50.7128 258.247 51.458 257.267 52.2692 256.319C53.0322 255.428 53.7008 254.753 53.6418 254.813L105.207 305.063ZM113.807 289.782C113.902 289.263 113.917 289.216 113.871 289.425C113.848 289.526 113.608 290.638 113.093 292.169C112.522 293.867 111.394 296.759 109.274 299.986C107.205 303.135 104.956 305.321 105.207 305.063L53.642 254.813C53.6381 254.817 53.5869 254.87 53.5296 254.929C53.4677 254.993 53.3704 255.094 53.2533 255.217C53.0208 255.462 52.6574 255.851 52.2288 256.34C51.3144 257.383 50.2158 258.752 49.0998 260.45C46.8348 263.898 45.5696 267.075 44.8505 269.212C43.7523 272.477 43.1842 275.723 42.9853 276.808L113.807 289.782ZM111.348 307.955C111.41 306.601 111.741 303.427 112.333 299.169C112.884 295.2 113.486 291.534 113.807 289.782L42.9853 276.808C42.085 281.722 39.8279 295.799 39.4227 304.67L111.348 307.955ZM111.341 311.223C111.255 310.916 111.248 310.85 111.265 310.941C111.273 310.981 111.281 311.032 111.288 311.085C111.291 311.11 111.294 311.131 111.296 311.147C111.297 311.163 111.298 311.171 111.298 311.17C111.294 311.127 111.236 310.412 111.348 307.955L39.4227 304.67C39.0324 313.214 39.3001 320.977 42.0124 330.654L111.341 311.223ZM113.049 313.942C112.599 313.133 112.244 312.494 111.903 311.861C111.569 311.242 111.321 310.763 111.135 310.386C110.945 309.999 110.883 309.847 110.9 309.889C110.907 309.905 111.104 310.379 111.341 311.223L42.0124 330.654C44.3419 338.966 49.0358 346.978 50.1307 348.946L113.049 313.942ZM112.686 313.305L112.686 313.305L50.4938 349.583L50.494 349.583L112.686 313.305ZM115.707 318.938C114.751 316.975 113.565 314.87 113.05 313.943L50.1305 348.946C50.5045 349.618 50.7366 350.036 50.9244 350.382C51.0096 350.539 51.0547 350.625 51.0715 350.657C51.0902 350.693 51.0527 350.622 50.9788 350.47L115.707 318.938ZM116.138 319.771C116.011 319.543 116.006 319.533 115.988 319.5C115.968 319.461 115.881 319.295 115.707 318.938L50.9789 350.471C52.0258 352.62 52.7542 353.94 53.2334 354.8L116.138 319.771ZM119.369 326.758C118.138 323.454 117.023 321.36 116.138 319.771L53.2334 354.8C53.4881 355.258 53.0931 354.57 52.6841 353.716C52.2258 352.759 51.9566 352.049 51.8978 351.891L119.369 326.758ZM123.102 340.833C122.204 334.215 120.02 328.507 119.369 326.758L51.8979 351.891C52.0245 352.231 52.102 352.446 52.157 352.604C52.211 352.759 52.2213 352.797 52.206 352.747C52.1916 352.699 52.131 352.495 52.0533 352.16C51.9769 351.832 51.859 351.271 51.7566 350.517L123.102 340.833ZM123.139 341.027C123.12 340.914 123.107 340.838 123.096 340.768C123.085 340.702 123.079 340.663 123.075 340.642C123.072 340.622 123.073 340.63 123.078 340.659C123.082 340.688 123.091 340.749 123.102 340.833L51.7566 350.516C51.8951 351.537 52.0572 352.496 52.1097 352.813L123.139 341.027ZM123.193 341.363L123.193 341.362L52.0557 352.478L52.0557 352.478L123.193 341.363ZM118.461 370.808C123.782 361.76 124.055 353.057 123.971 349.138C123.884 345.121 123.213 341.478 123.139 341.028L52.1097 352.813C52.3593 354.317 52.0315 352.744 51.9873 350.683C51.9452 348.72 51.9583 341.858 56.3981 334.309L118.461 370.808ZM118.405 370.903L118.471 370.792L56.3885 334.325L56.3234 334.436L118.405 370.903ZM88.9001 391.763C92.9151 390.857 99.9061 388.98 106.691 384.051C114.358 378.483 118.055 371.5 118.409 370.897L56.3198 334.442C55.6376 335.604 58.4768 330.083 64.3771 325.797C67.0032 323.89 69.3608 322.812 70.8442 322.24C71.58 321.956 72.154 321.776 72.503 321.675C72.8533 321.573 73.0529 321.528 73.0554 321.528L88.9001 391.763ZM55.5631 394.865C62.6571 395.509 70.2976 394.717 74.7873 394.157C79.9734 393.51 85.2059 392.596 88.8999 391.763L73.0556 321.528C71.9815 321.77 69.0936 322.309 65.8724 322.711C64.3282 322.904 63.0268 323.024 62.0649 323.079C60.8996 323.145 61.0503 323.067 62.0794 323.16L55.5631 394.865ZM54.021 394.75C54.8284 394.805 55.2205 394.834 55.5639 394.865L62.0786 323.16C60.8312 323.047 59.6713 322.968 58.9714 322.92L54.021 394.75ZM12.834 368.586C17.8893 379.469 26.5317 387.39 37.2039 391.451C45.0542 394.439 53.0529 394.683 54.0209 394.75L58.9716 322.92C57.4958 322.818 57.5772 322.809 57.8926 322.852C58.3297 322.912 60.2551 323.186 62.8129 324.16C65.6006 325.221 68.908 327.021 72.0167 329.919C75.0957 332.791 77.0102 335.836 78.1333 338.254L12.834 368.586ZM7.63724 336.592C7.66583 339.748 7.69043 344.491 8.05328 348.98C8.36718 352.863 9.16986 360.697 12.834 368.586L78.1333 338.254C78.726 339.53 79.1011 340.604 79.3334 341.362C79.5672 342.126 79.6973 342.705 79.764 343.035C79.8855 343.637 79.867 343.769 79.8192 343.178C79.7742 342.622 79.7297 341.773 79.6972 340.478C79.6644 339.172 79.6507 337.751 79.6343 335.94L7.63724 336.592ZM7.41646 328.106C7.57037 330.376 7.60405 332.929 7.63724 336.592L79.6343 335.94C79.6045 332.655 79.5727 327.973 79.2516 323.236L7.41646 328.106ZM5.21318 291.451C5.59531 300.696 6.70848 317.661 7.41646 328.106L79.2516 323.236C78.5259 312.529 77.4868 296.584 77.1518 288.478L5.21318 291.451ZM4.94589 288.689C5.04802 289.413 5.0812 289.664 5.11275 289.967C5.14107 290.239 5.18208 290.699 5.21318 291.451L77.1518 288.478C76.9558 283.737 76.513 280.566 76.2389 278.624L4.94589 288.689ZM5.93204 266.308C5.17262 269.971 4.45791 274.113 4.31199 278.582C4.15169 283.492 4.75879 287.364 4.94589 288.689L76.2389 278.624C76.1838 278.234 76.1694 278.128 76.1613 278.066C76.1576 278.037 76.1794 278.202 76.2044 278.478C76.2309 278.769 76.2584 279.155 76.2731 279.608C76.288 280.064 76.2875 280.509 76.2736 280.932C76.246 281.778 76.1729 282.293 76.1708 282.308C76.1704 282.311 76.1853 282.207 76.228 281.969C76.2707 281.732 76.3359 281.392 76.4329 280.924L5.93204 266.308ZM11.3782 248.329C9.88182 252.58 7.30679 259.677 5.93203 266.308L76.4329 280.924C76.427 280.952 76.4647 280.768 76.5904 280.317C76.7144 279.871 76.8934 279.273 77.1489 278.479C77.6885 276.802 78.3599 274.887 79.2927 272.238L11.3782 248.329ZM11.6277 247.643L11.6276 247.643L79.0433 272.924L79.0434 272.924L11.6277 247.643ZM16.7834 230.34C15.7768 235.647 13.9232 241.1 11.3783 248.329L79.2927 272.238C81.6117 265.65 85.3467 255.228 87.5224 243.756L16.7834 230.34ZM19.4416 206.136C18.565 216.634 17.8456 224.739 16.7834 230.34L87.5224 243.756C89.4361 233.666 90.4216 221.353 91.1919 212.127L19.4416 206.136ZM22.238 180.35C20.8975 188.37 20.101 198.238 19.4416 206.136L91.1919 212.126C91.941 203.154 92.5107 196.66 93.253 192.219L22.238 180.35ZM29.3758 151.897C27.4926 157.955 24.2664 168.213 22.238 180.35L93.253 192.219C94.3867 185.435 96.2303 179.383 98.1309 173.268L29.3758 151.897ZM29.4804 151.566L29.4803 151.566L98.0264 173.599L98.0264 173.598L29.4804 151.566ZM30.7889 147.192C30.6384 147.792 30.2983 148.929 29.3758 151.896L98.131 173.268C98.8305 171.017 99.876 167.696 100.623 164.718L30.7889 147.192ZM31.527 158.399C31.5772 158.64 31.2156 157.028 31.0029 155.076C30.7599 152.847 30.7531 150.811 30.8654 149.041C30.9657 147.462 31.1533 146.237 31.2565 145.62C31.364 144.976 31.4621 144.514 31.4923 144.374C31.5447 144.129 31.5495 144.131 31.3984 144.748C31.2661 145.287 31.0752 146.052 30.7889 147.192L100.623 164.718C101.108 162.787 101.592 160.866 101.89 159.48C101.99 159.015 102.531 156.594 102.721 153.604C103.032 148.697 102.267 144.932 102.014 143.717L31.527 158.399ZM30.7218 150.516C30.7218 153.741 31.1037 156.367 31.527 158.4L102.014 143.717C102.003 143.665 102.104 144.137 102.206 144.716C102.318 145.353 102.424 146.058 102.511 146.823C102.682 148.338 102.722 149.606 102.722 150.516H30.7218ZM314.667 289.644V309.556H386.667V289.644H314.667ZM314.667 281.449V289.644H386.667V281.449H314.667ZM314.667 260.444V281.449H386.667V260.444H314.667ZM349.54 222.573C329.998 224.185 314.667 240.506 314.667 260.444H386.667C386.667 278.286 372.949 292.887 355.46 294.329L349.54 222.573ZM352.667 222.444C351.625 222.444 350.579 222.487 349.532 222.574L355.468 294.329C354.531 294.406 353.596 294.444 352.667 294.444V222.444ZM365.441 222.444H352.667V294.444H365.441V222.444ZM343 244.886C343 232.492 353.047 222.444 365.441 222.444V294.444C392.812 294.444 415 272.256 415 244.886H343ZM343 243.852V244.886H415V243.852H343ZM352.5 263.249C346.507 258.598 343 251.438 343 243.852H415C415 229.191 408.223 215.354 396.64 206.366L352.5 263.249ZM360.533 266C357.624 266 354.798 265.032 352.5 263.249L396.64 206.366C386.311 198.35 373.608 194 360.533 194V266ZM357.75 266H360.533V194H357.75V266ZM354.967 266H357.75V194H354.967V266ZM363 263.249C360.702 265.032 357.875 266 354.967 266V194C341.892 194 329.189 198.35 318.86 206.366L363 263.249ZM372.5 243.852C372.5 251.438 368.993 258.598 363 263.249L318.86 206.366C307.277 215.354 300.5 229.191 300.5 243.852H372.5ZM372.5 252.521V243.852H300.5V252.521H372.5ZM372.5 260.444V252.521H300.5V260.444H372.5ZM372.5 267.412V260.444H300.5V267.412H372.5ZM372.5 267.73V267.412H300.5V267.73H372.5ZM372.5 276.283V267.73H300.5V276.283H372.5ZM372.5 281.449V276.283H300.5V281.449H372.5ZM340.824 318.986C355.893 316.371 372.5 303.08 372.5 281.449H300.5C300.5 261.998 315.426 250.319 328.509 248.047L340.824 318.986ZM318.665 316.226C325.998 319.5 333.751 320.214 340.824 318.986L328.509 248.047C334.719 246.969 341.552 247.594 348.02 250.482L318.665 316.226ZM320.051 316.727C319.552 316.586 319.087 316.414 318.664 316.226L348.021 250.482C345.323 249.278 342.536 248.263 339.667 247.451L320.051 316.727ZM321.395 317.024C321.03 316.968 320.576 316.876 320.051 316.727L339.667 247.451C337.244 246.765 334.822 246.246 332.418 245.873L321.395 317.024ZM322.333 317.111C322.238 317.111 321.912 317.104 321.394 317.024L332.419 245.873C328.995 245.343 325.62 245.111 322.333 245.111V317.111ZM322.585 317.103C322.481 317.109 322.396 317.111 322.333 317.111V245.111C321.036 245.111 319.731 245.148 318.421 245.224L322.585 317.103ZM322.672 317.098L322.675 317.098L318.331 245.229L318.328 245.229L322.672 317.098ZM327.828 314.873C327.6 315.102 326.882 315.73 325.656 316.29C324.414 316.858 323.289 317.062 322.586 317.103L318.414 245.224C302.272 246.161 287.96 252.875 276.817 264.061L327.828 314.873ZM330 309.556C330 309.995 329.901 311.089 329.339 312.446C328.779 313.799 328.09 314.61 327.828 314.873L276.817 264.061C264.587 276.339 258 292.155 258 309.556H330ZM327.828 304.238C328.09 304.501 328.779 305.313 329.339 306.665C329.901 308.022 330 309.116 330 309.556H258C258 326.956 264.587 342.772 276.817 355.05L327.828 304.238ZM322.333 302C322.825 302 323.966 302.109 325.358 302.691C326.744 303.27 327.568 303.977 327.828 304.238L276.817 355.05C289.052 367.333 304.872 374 322.333 374V302ZM316.838 304.238C317.098 303.977 317.922 303.27 319.308 302.691C320.701 302.109 321.842 302 322.333 302V374C339.794 374 355.614 367.333 367.849 355.05L316.838 304.238ZM314.667 309.556C314.667 308.417 314.788 307.706 314.846 307.413C314.911 307.089 314.979 306.884 315.035 306.74C315.092 306.593 315.204 306.336 315.432 305.97C315.658 305.607 316.094 304.986 316.838 304.238L367.849 355.05C380.859 341.989 386.667 324.056 386.667 309.556H314.667ZM319.123 229.172C298.515 229.961 279.862 238.332 265.481 252.769L316.493 303.581C318.287 301.78 319.801 301.199 321.877 301.12L319.123 229.172ZM284.5 243.852V265.146H356.5V243.852H284.5ZM309.051 193.725C293.563 205.744 284.5 224.247 284.5 243.852H356.5C356.5 246.494 355.278 248.988 353.191 250.608L309.051 193.725ZM354.967 178C338.34 178 322.186 183.532 309.051 193.725L353.191 250.608C353.699 250.214 354.324 250 354.967 250V178ZM357.75 178H354.967V250H357.75V178ZM360.533 178H357.75V250H360.533V178ZM406.449 193.725C393.313 183.532 377.16 178 360.533 178V250C361.176 250 361.801 250.214 362.309 250.608L406.449 193.725ZM431 243.852C431 224.247 421.937 205.744 406.449 193.725L362.309 250.608C360.221 248.988 359 246.494 359 243.852H431ZM431 244.886V243.852H359V244.886H431ZM368.134 310.39C403.106 308.963 431 280.191 431 244.886H359C359 241.409 361.74 238.59 365.2 238.449L368.134 310.39ZM402.667 309.556V274.419H330.667V309.556H402.667ZM379.185 366.342C395.526 349.937 402.667 327.775 402.667 309.556H330.667C330.667 309.538 330.664 309.873 330.542 310.497C330.424 311.107 330.227 311.818 329.941 312.555C329.332 314.122 328.606 315.097 328.174 315.53L379.185 366.342ZM322.333 390C344.094 390 363.98 381.607 379.185 366.342L328.174 315.53C326.338 317.373 324.751 318 322.333 318V390ZM265.481 366.342C280.687 381.607 300.572 390 322.333 390V318C319.916 318 318.328 317.373 316.493 315.53L265.481 366.342ZM242 309.556C242 331.214 250.282 351.083 265.481 366.342L316.493 315.53C314.655 313.686 314 312.055 314 309.556H242ZM265.481 252.769C250.282 268.028 242 287.897 242 309.556H314C314 307.056 314.655 305.425 316.493 303.581L265.481 252.769Z" fill="#D08DE7" mask="url(#path-1-outside-1_3_387)"/>
</svg>
